<svg width="41" height="41" viewBox="0 0 41 41" fill="none" xmlns="http://www.w3.org/2000/svg">
<path d="M35.8753 5.125H5.12533C4.18184 5.125 3.41699 5.88985 3.41699 6.83333V11.9583C3.41699 12.9018 4.18184 13.6667 5.12533 13.6667H35.8753C36.8188 13.6667 37.5837 12.9018 37.5837 11.9583V6.83333C37.5837 5.88985 36.8188 5.125 35.8753 5.125Z" stroke="#AE1D22" stroke-width="4" stroke-linecap="round" stroke-linejoin="round"/>
<path d="M6.83301 13.6667V32.4584C6.83301 33.3645 7.19298 34.2336 7.83373 34.8743C8.47448 35.5151 9.34352 35.875 10.2497 35.875H13.6663" stroke="#AE1D22" stroke-width="4" stroke-linecap="round" stroke-linejoin="round"/>
<path d="M34.1663 13.6667V32.4584C34.1663 33.3645 33.8064 34.2336 33.1656 34.8743C32.5249 35.5151 31.6558 35.875 30.7497 35.875H27.333" stroke="#AE1D22" stroke-width="4" stroke-linecap="round" stroke-linejoin="round"/>
<path d="M15.375 25.625L20.5 20.5L25.625 25.625" stroke="#AE1D22" stroke-width="4" stroke-linecap="round" stroke-linejoin="round"/>
<path d="M20.5 20.5V35.875" stroke="#AE1D22" stroke-width="4" stroke-linecap="round" stroke-linejoin="round"/>
</svg>
