<svg width="40" height="41" viewBox="0 0 40 41" fill="none" xmlns="http://www.w3.org/2000/svg">
<path d="M3.33301 35.875C4.33301 36.7292 5.33301 37.5833 7.49967 37.5833C11.6663 37.5833 11.6663 34.1667 15.833 34.1667C17.9997 34.1667 18.9997 35.0208 19.9997 35.875C20.9997 36.7292 21.9997 37.5833 24.1663 37.5833C28.333 37.5833 28.333 34.1667 32.4997 34.1667C34.6663 34.1667 35.6663 35.0208 36.6663 35.875" stroke="#AE1D22" stroke-width="4" stroke-linecap="round" stroke-linejoin="round"/>
<path d="M32.3 34.1667C34.0928 31.0653 35.0263 27.5215 35 23.9167L20 17.0833L5 23.9167C5 28.8708 6.56667 33.0392 9.68333 37.1733" stroke="#AE1D22" stroke-width="4" stroke-linecap="round" stroke-linejoin="round"/>
<path d="M31.6663 22.2083V11.9583C31.6663 11.0522 31.3152 10.1831 30.69 9.54238C30.0649 8.90163 29.2171 8.54166 28.333 8.54166H11.6663C10.7823 8.54166 9.93444 8.90163 9.30932 9.54238C8.6842 10.1831 8.33301 11.0522 8.33301 11.9583V22.2083" stroke="#AE1D22" stroke-width="4" stroke-linecap="round" stroke-linejoin="round"/>
<path d="M20 17.0833V23.9167" stroke="#AE1D22" stroke-width="4" stroke-linecap="round" stroke-linejoin="round"/>
<path d="M20 3.41666V8.54166" stroke="#AE1D22" stroke-width="4" stroke-linecap="round" stroke-linejoin="round"/>
</svg>
