<svg width="41" height="41" viewBox="0 0 41 41" fill="none" xmlns="http://www.w3.org/2000/svg">
<path d="M20.5 29.0417V35.875" stroke="#AE1D22" stroke-width="4" stroke-linecap="round" stroke-linejoin="round"/>
<path d="M25.9662 8.37083L24.4287 7.6875" stroke="#AE1D22" stroke-width="4" stroke-linecap="round" stroke-linejoin="round"/>
<path d="M25.9662 12.1292L24.4287 12.8125" stroke="#AE1D22" stroke-width="4" stroke-linecap="round" stroke-linejoin="round"/>
<path d="M28.8708 5.46667L28.1875 3.92917" stroke="#AE1D22" stroke-width="4" stroke-linecap="round" stroke-linejoin="round"/>
<path d="M28.8708 15.0333L28.1875 16.5708" stroke="#AE1D22" stroke-width="4" stroke-linecap="round" stroke-linejoin="round"/>
<path d="M33.3122 3.92914L32.6289 5.46664" stroke="#AE1D22" stroke-width="4" stroke-linecap="round" stroke-linejoin="round"/>
<path d="M33.3122 16.5708L32.6289 15.0333" stroke="#AE1D22" stroke-width="4" stroke-linecap="round" stroke-linejoin="round"/>
<path d="M37.0707 7.6875L35.5332 8.37083" stroke="#AE1D22" stroke-width="4" stroke-linecap="round" stroke-linejoin="round"/>
<path d="M37.0707 12.8125L35.5332 12.1292" stroke="#AE1D22" stroke-width="4" stroke-linecap="round" stroke-linejoin="round"/>
<path d="M37.5837 22.2083V25.625C37.5837 26.5312 37.2237 27.4002 36.5829 28.0409C35.9422 28.6817 35.0731 29.0417 34.167 29.0417H6.83366C5.9275 29.0417 5.05846 28.6817 4.41771 28.0409C3.77696 27.4002 3.41699 26.5312 3.41699 25.625V8.54167C3.41699 7.63551 3.77696 6.76647 4.41771 6.12572C5.05846 5.48497 5.9275 5.125 6.83366 5.125H18.792" stroke="#AE1D22" stroke-width="4" stroke-linecap="round" stroke-linejoin="round"/>
<path d="M13.667 35.875H27.3337" stroke="#AE1D22" stroke-width="4" stroke-linecap="round" stroke-linejoin="round"/>
<path d="M30.75 15.375C33.5805 15.375 35.875 13.0805 35.875 10.25C35.875 7.41954 33.5805 5.125 30.75 5.125C27.9195 5.125 25.625 7.41954 25.625 10.25C25.625 13.0805 27.9195 15.375 30.75 15.375Z" stroke="#AE1D22" stroke-width="4" stroke-linecap="round" stroke-linejoin="round"/>
</svg>
