<svg width="41" height="41" viewBox="0 0 41 41" fill="none" xmlns="http://www.w3.org/2000/svg">
<path d="M13.6663 37.5834C14.6098 37.5834 15.3747 36.8185 15.3747 35.875C15.3747 34.9315 14.6098 34.1667 13.6663 34.1667C12.7229 34.1667 11.958 34.9315 11.958 35.875C11.958 36.8185 12.7229 37.5834 13.6663 37.5834Z" stroke="#AE1D22" stroke-width="4" stroke-linecap="round" stroke-linejoin="round"/>
<path d="M32.4583 37.5834C33.4018 37.5834 34.1667 36.8185 34.1667 35.875C34.1667 34.9315 33.4018 34.1667 32.4583 34.1667C31.5148 34.1667 30.75 34.9315 30.75 35.875C30.75 36.8185 31.5148 37.5834 32.4583 37.5834Z" stroke="#AE1D22" stroke-width="4" stroke-linecap="round" stroke-linejoin="round"/>
<path d="M3.50195 3.50208H6.91862L11.4628 24.7196C11.6295 25.4966 12.0618 26.1913 12.6855 26.6839C13.3091 27.1766 14.0849 27.4364 14.8795 27.4187H31.587C32.3645 27.4175 33.1184 27.151 33.7241 26.6634C34.3298 26.1757 34.751 25.4961 34.9182 24.7367L37.737 12.0437H8.74654" stroke="#AE1D22" stroke-width="4" stroke-linecap="round" stroke-linejoin="round"/>
</svg>
