<svg width="23" height="25" viewBox="0 0 23 25" fill="none" xmlns="http://www.w3.org/2000/svg">
<path d="M20.4444 0C21.1222 0 21.7722 0.292658 22.2515 0.813592C22.7308 1.33453 23 2.04107 23 2.77778V22.2222C23 22.9589 22.7308 23.6655 22.2515 24.1864C21.7722 24.7073 21.1222 25 20.4444 25H2.55556C1.87778 25 1.22776 24.7073 0.748505 24.1864C0.269245 23.6655 0 22.9589 0 22.2222V2.77778C0 2.04107 0.269245 1.33453 0.748505 0.813592C1.22776 0.292658 1.87778 0 2.55556 0H20.4444ZM19.8056 21.5278V14.1667C19.8056 12.9658 19.3667 11.8142 18.5855 10.965C17.8043 10.1159 16.7448 9.63889 15.64 9.63889C14.5539 9.63889 13.2889 10.3611 12.6756 11.4444V9.90278H9.11056V21.5278H12.6756V14.6806C12.6756 13.6111 13.4678 12.7361 14.4517 12.7361C14.9261 12.7361 15.3811 12.941 15.7166 13.3056C16.0521 13.6703 16.2406 14.1649 16.2406 14.6806V21.5278H19.8056ZM4.95778 7.72222C5.52711 7.72222 6.07312 7.47639 6.4757 7.03881C6.87828 6.60122 7.10444 6.00773 7.10444 5.38889C7.10444 4.09722 6.14611 3.04167 4.95778 3.04167C4.38506 3.04167 3.83579 3.28896 3.43082 3.72915C3.02585 4.16934 2.79833 4.76637 2.79833 5.38889C2.79833 6.68056 3.76944 7.72222 4.95778 7.72222ZM6.73389 21.5278V9.90278H3.19444V21.5278H6.73389Z" fill="#252525" fill-opacity="0.7"/>
</svg>
