<svg width="26" height="25" viewBox="0 0 26 25" fill="none" xmlns="http://www.w3.org/2000/svg">
<path d="M13 0C20.1799 0 26 5.59625 26 12.5C26 19.4037 20.1799 25 13 25C10.7026 25.0038 8.44557 24.4192 6.46102 23.3062L0.00522009 25L1.76282 18.79C0.604466 16.8811 -0.00400611 14.71 1.98493e-05 12.5C1.98493e-05 5.59625 5.82012 0 13 0ZM8.56961 6.625L8.30961 6.63499C8.14151 6.64613 7.97727 6.68859 7.82601 6.75999C7.68506 6.83688 7.55634 6.93287 7.44381 7.04499C7.28781 7.18624 7.19941 7.30874 7.10451 7.42749C6.62367 8.02862 6.36478 8.76663 6.36872 9.52499C6.37132 10.1375 6.53771 10.7337 6.79771 11.2912C7.32941 12.4187 8.20431 13.6125 9.35871 14.7187C9.63691 14.985 9.90991 15.2525 10.2037 15.5012C11.6382 16.7155 13.3475 17.5912 15.1957 18.0587L15.9341 18.1675C16.1746 18.18 16.4151 18.1625 16.6569 18.1512C17.0354 18.132 17.405 18.0335 17.7398 17.8625C17.9099 17.7779 18.076 17.6862 18.2377 17.5875C18.2377 17.5875 18.2927 17.5517 18.4002 17.475C18.5757 17.35 18.6836 17.2612 18.8292 17.115C18.9384 17.0067 19.0294 16.8808 19.1022 16.7375C19.2036 16.5337 19.305 16.145 19.3466 15.8212C19.3778 15.5737 19.3687 15.4387 19.3648 15.355C19.3596 15.2212 19.2439 15.0825 19.1178 15.0237L18.3612 14.6975C18.3612 14.6975 17.2302 14.2237 16.5386 13.9212C16.4662 13.8909 16.3887 13.8736 16.3098 13.87C16.2209 13.861 16.1309 13.8706 16.0462 13.898C15.9614 13.9254 15.8837 13.97 15.8184 14.0287C15.8119 14.0262 15.7248 14.0975 14.7849 15.1925C14.731 15.2622 14.6567 15.3149 14.5715 15.3438C14.4863 15.3727 14.394 15.3766 14.3065 15.355C14.2218 15.3333 14.1388 15.3057 14.0582 15.2725C13.897 15.2075 13.8411 15.1825 13.7306 15.1375C12.9842 14.8249 12.2934 14.4018 11.6831 13.8837C11.5193 13.7462 11.3672 13.5962 11.2112 13.4512C10.6998 12.9802 10.2541 12.4475 9.88521 11.8662L9.80851 11.7475C9.75425 11.6672 9.70976 11.5813 9.67591 11.4912C9.62651 11.3075 9.75521 11.16 9.75521 11.16C9.75521 11.16 10.0711 10.8275 10.218 10.6475C10.361 10.4725 10.4819 10.3025 10.5599 10.1812C10.7133 9.94374 10.7614 9.69999 10.6808 9.51124C10.3168 8.65624 9.94068 7.80583 9.55241 6.95999C9.47571 6.79249 9.24821 6.67249 9.04151 6.64874C8.97131 6.64041 8.90111 6.63374 8.83091 6.62875C8.65636 6.61912 8.48133 6.62079 8.30701 6.63375L8.56961 6.625Z" fill="#252525" fill-opacity="0.7"/>
</svg>
