<?xml version="1.0" encoding="UTF-8"?>
<svg id="Camada_1" xmlns="http://www.w3.org/2000/svg" version="1.1" xmlns:xlink="http://www.w3.org/1999/xlink" viewBox="0 0 600 200">
  <!-- Generator: Adobe Illustrator 29.5.1, SVG Export Plug-In . SVG Version: 2.1.0 Build 141)  -->
  <defs>
    <style>
      .st0 {
        clip-path: url(#clippath-6);
      }

      .st1 {
        clip-path: url(#clippath-7);
      }

      .st2 {
        clip-path: url(#clippath-4);
      }

      .st3 {
        fill: #d6101a;
      }

      .st4 {
        clip-path: url(#clippath-9);
      }

      .st5 {
        clip-path: url(#clippath-10);
      }

      .st6, .st7 {
        fill: #fff;
      }

      .st8 {
        fill: #ae1e24;
      }

      .st7 {
        fill-rule: evenodd;
      }

      .st9 {
        fill: none;
      }

      .st10 {
        fill: url(#Gradiente_sem_nome);
      }

      .st11 {
        fill: #010817;
      }

      .st12 {
        clip-path: url(#clippath-1);
      }

      .st13 {
        isolation: isolate;
      }

      .st14 {
        clip-path: url(#clippath-5);
      }

      .st15 {
        clip-path: url(#clippath-8);
      }

      .st16 {
        clip-path: url(#clippath-3);
      }

      .st17 {
        clip-path: url(#clippath-2);
      }

      .st18 {
        fill: #af1f23;
      }

      .st19 {
        clip-path: url(#clippath);
      }
    </style>
    <linearGradient id="Gradiente_sem_nome" data-name="Gradiente sem nome" x1="-13347" y1="-8320.5" x2="-12742.9" y2="-8320.5" gradientTransform="translate(-12747 -8221.1) rotate(-180)" gradientUnits="userSpaceOnUse">
      <stop offset="0" stop-color="#87151a" stop-opacity=".8"/>
      <stop offset="0" stop-color="#87151a" stop-opacity=".7"/>
      <stop offset=".3" stop-color="#87151a" stop-opacity=".6"/>
      <stop offset=".5" stop-color="#87151a" stop-opacity=".4"/>
      <stop offset=".8" stop-color="#87151a" stop-opacity=".2"/>
      <stop offset="1" stop-color="#87151a" stop-opacity="0"/>
    </linearGradient>
    <clipPath id="clippath">
      <rect class="st9" x="308.5" y="85.2" width="21.3" height="21.3"/>
    </clipPath>
    <clipPath id="clippath-1">
      <path class="st9" d="M319.2,85.2c-5.9,0-10.7,4.8-10.7,10.7s4.8,10.7,10.7,10.7,10.7-4.8,10.7-10.7-4.8-10.7-10.7-10.7Z"/>
    </clipPath>
    <clipPath id="clippath-2">
      <rect class="st9" x="312.5" y="89.5" width="12.8" height="13"/>
    </clipPath>
    <clipPath id="clippath-3">
      <rect class="st9" x="440.2" y="85.2" width="21.3" height="21.3"/>
    </clipPath>
    <clipPath id="clippath-4">
      <path class="st9" d="M450.9,85.2c-5.9,0-10.7,4.8-10.7,10.7s4.8,10.7,10.7,10.7,10.7-4.8,10.7-10.7-4.8-10.7-10.7-10.7Z"/>
    </clipPath>
    <clipPath id="clippath-5">
      <rect class="st9" x="444.2" y="89.2" width="13" height="13"/>
    </clipPath>
    <clipPath id="clippath-6">
      <rect class="st9" x="440.2" y="48.6" width="21" height="21"/>
    </clipPath>
    <clipPath id="clippath-7">
      <rect class="st9" x="308.6" y="48.6" width="20.8" height="20.8"/>
    </clipPath>
    <clipPath id="clippath-8">
      <rect class="st9" x="308.5" y="48.6" width="21.3" height="21.3"/>
    </clipPath>
    <clipPath id="clippath-9">
      <path class="st9" d="M319.2,48.6c-5.9,0-10.7,4.8-10.7,10.7s4.8,10.7,10.7,10.7,10.7-4.8,10.7-10.7-4.8-10.7-10.7-10.7Z"/>
    </clipPath>
    <clipPath id="clippath-10">
      <rect class="st9" x="313.1" y="53.4" width="12" height="12"/>
    </clipPath>
  </defs>
  <rect class="st6" y="0" width="600" height="200"/>
  <g>
    <rect class="st11" y="0" width="600" height="200"/>
    <rect class="st10" x="-4.1" y="-.9" width="604.1" height="200.7"/>
  </g>
  <g>
    <g class="st19">
      <g class="st12">
        <path class="st8" d="M308.5,85.2h21.3v21.3h-21.3v-21.3Z"/>
      </g>
    </g>
    <g class="st17">
      <path class="st6" d="M319,89.5h-2.6c-.7,0-1.2,0-1.6.3-.4.2-.8.4-1.1.7-.4.3-.6.7-.7,1.1-.2.4-.3.9-.3,1.6v5.3c0,.7.1,1.2.3,1.6.2.4.4.8.7,1.1s.7.6,1.1.7c.4.2.9.3,1.6.3h5.2c.7,0,1.2,0,1.6-.3.4-.2.8-.4,1.1-.7.3-.4.6-.7.7-1.1s.3-.9.3-1.6v-5.3c0-.7-.1-1.2-.3-1.6-.2-.4-.4-.8-.7-1.1-.4-.3-.7-.6-1.1-.7-.4-.2-.9-.3-1.6-.3h-2.6ZM318.4,90.7h3.2c.6,0,1,0,1.2.2.3,0,.5.3.7.5s.4.4.5.7c0,.2.2.6.2,1.2v5.2c0,.6-.1,1-.2,1.2-.1.3-.2.5-.5.7-.2.2-.4.3-.7.5-.2,0-.6.2-1.2.2h-5.2c-.6,0-1,0-1.2-.2-.3,0-.5-.3-.7-.5s-.4-.4-.5-.7c0-.2-.2-.6-.2-1.2v-5.2c0-.6.1-1,.2-1.2.1-.3.2-.5.5-.7.2-.2.4-.3.7-.5.2,0,.6-.2,1.2-.2h2ZM319,92.6c-1.8,0-3.3,1.5-3.3,3.3s1.5,3.3,3.3,3.3,3.3-1.5,3.3-3.3-1.5-3.3-3.3-3.3ZM319,93.8c1.2,0,2.2,1,2.2,2.2s-1,2.2-2.2,2.2-2.2-1-2.2-2.2,1-2.2,2.2-2.2Z"/>
    </g>
    <path class="st6" d="M341.1,91.6c1,0,1.8.2,2.6.6.8.4,1.4,1,1.8,1.7s.7,1.6.7,2.5-.2,1.6-.5,2.2c-.3.5-.8.8-1.3.8s-.7,0-.9-.3c-.2-.2-.3-.5-.4-.9-.2.4-.5.7-.9.9-.4.2-.8.3-1.3.3s-1,0-1.4-.4-.7-.6-1-1c-.2-.4-.4-.9-.4-1.5s.1-1,.4-1.4c.2-.4.6-.8,1-1,.4-.3.9-.4,1.4-.4s.9,0,1.3.3c.4.2.7.5.9.8v-1.1h.7v4.2c0,.3,0,.5.2.6.1,0,.3.2.5.2.3,0,.6-.2.8-.6.2-.4.3-1,.3-1.7s-.2-1.6-.6-2.2c-.4-.7-.9-1.2-1.6-1.5-.7-.4-1.5-.5-2.3-.5s-1.7.2-2.4.6c-.7.4-1.2.9-1.6,1.6s-.6,1.4-.6,2.3.2,1.6.6,2.3c.4.7.9,1.2,1.6,1.5.7.4,1.5.6,2.3.6h1.1c.4,0,.7-.2,1-.4l.2.5c-.3.2-.7.3-1.1.4h-1.2c-1,0-1.9-.2-2.6-.6-.8-.4-1.4-1-1.8-1.8s-.6-1.6-.6-2.6.2-1.8.6-2.6c.4-.8,1-1.3,1.8-1.8.8-.4,1.7-.6,2.7-.6h0ZM341,98.7c.4,0,.8,0,1.1-.3.3-.2.6-.4.8-.8.2-.3.3-.7.3-1.2s0-.8-.3-1.1c-.2-.3-.4-.6-.8-.8-.3-.2-.7-.3-1.1-.3s-.8,0-1.1.3c-.3.2-.6.4-.7.8-.2.3-.3.7-.3,1.1s0,.8.3,1.1c.2.3.4.6.7.8.3.2.7.3,1.1.3h0Z"/>
    <path class="st6" d="M353.1,91.2v8.1h-.8v-1.1c-.2.4-.6.7-.9.9-.4.2-.8.3-1.3.3s-1,0-1.5-.4c-.4-.3-.8-.6-1-1-.3-.4-.4-.9-.4-1.5s.1-1.1.4-1.5c.3-.5.6-.8,1-1,.4-.3.9-.4,1.5-.4s.9,0,1.3.3c.4.2.7.5.9.9v-3.5h.8ZM350.2,98.7c.4,0,.8,0,1.1-.3.3-.2.6-.4.8-.8.2-.3.3-.7.3-1.2s0-.8-.3-1.2c-.2-.3-.4-.6-.8-.8-.3-.2-.7-.3-1.1-.3s-.8,0-1.1.3c-.3.2-.6.4-.8.8-.2.3-.3.7-.3,1.2s0,.8.3,1.2c.2.3.4.6.8.8.3.2.7.3,1.1.3Z"/>
    <path class="st6" d="M360.4,93.6v5.8h-.7v-1c-.2.3-.5.6-.9.8-.4.2-.8.3-1.2.3-.8,0-1.3-.2-1.8-.6-.4-.4-.6-1-.6-1.9v-3.4h.8v3.3c0,.6.1,1.1.4,1.4s.7.5,1.3.5,1.1-.2,1.4-.5c.3-.4.5-.9.5-1.6v-3h.8Z"/>
    <path class="st6" d="M363.4,94.7c.2-.4.4-.7.8-.9.4-.2.8-.3,1.3-.3v.8h-.2c-.6,0-1.1.2-1.4.5-.3.4-.5.9-.5,1.6v2.9h-.8v-5.8h.8v1.1h0Z"/>
    <path class="st6" d="M366.9,93.6h.8v5.8h-.8v-5.8ZM367.3,92.3c-.2,0-.3,0-.4-.2-.1,0-.2-.2-.2-.4s0-.3.2-.4c.1,0,.2-.2.4-.2s.3,0,.4.2c.1,0,.2.2.2.4s0,.3-.2.4c-.1,0-.3.2-.4.2Z"/>
    <path class="st6" d="M372.9,99c-.2,0-.3.2-.6.3h-.7c-.5,0-1,0-1.3-.4s-.4-.7-.4-1.3v-3.5h-1v-.7h1v-1.3h.8v1.3h1.8v.7h-1.8v3.4c0,.3,0,.6.3.8.2.2.4.3.8.3h.5c.2,0,.3,0,.4-.2l.3.6h0Z"/>
    <path class="st6" d="M375.1,94.7c.2-.4.4-.7.8-.9.4-.2.8-.3,1.3-.3v.8h-.2c-.6,0-1.1.2-1.4.5-.3.4-.5.9-.5,1.6v2.9h-.8v-5.8h.8v1.1h0Z"/>
    <path class="st6" d="M380.7,93.5c.8,0,1.3.2,1.7.6.4.4.6.9.6,1.7v3.6h-.8v-.9c-.2.3-.4.5-.8.7-.3.2-.7.3-1.2.3s-1.2-.2-1.5-.5c-.4-.3-.6-.7-.6-1.2s.2-.9.5-1.2c.4-.3.9-.5,1.7-.5h1.8v-.4c0-.5-.1-.9-.4-1.1-.3-.3-.7-.4-1.2-.4s-.7,0-1.1.2c-.3,0-.6.3-.9.5l-.4-.6c.3-.3.6-.4,1-.6.4,0,.9-.2,1.3-.2h.3ZM380.4,98.8c.4,0,.8,0,1.1-.3.3-.2.6-.5.7-.9v-.9h-1.8c-1,0-1.5.3-1.5,1s.1.6.4.8c.3.2.6.3,1.1.3h0Z"/>
    <path class="st6" d="M390.4,91.2v8.1h-.8v-1.1c-.2.4-.6.7-.9.9-.4.2-.8.3-1.3.3s-1,0-1.5-.4c-.4-.3-.8-.6-1-1-.3-.4-.4-.9-.4-1.5s.1-1.1.4-1.5c.3-.5.6-.8,1-1,.4-.3.9-.4,1.5-.4s.9,0,1.3.3c.4.2.7.5.9.9v-3.5h.8ZM387.5,98.7c.4,0,.8,0,1.1-.3.3-.2.6-.4.8-.8.2-.3.3-.7.3-1.2s0-.8-.3-1.2c-.2-.3-.4-.6-.8-.8-.3-.2-.7-.3-1.1-.3s-.8,0-1.1.3c-.3.2-.6.4-.8.8-.2.3-.3.7-.3,1.2s0,.8.3,1.2c.2.3.4.6.8.8.3.2.7.3,1.1.3Z"/>
    <path class="st6" d="M392.6,93.6h.8v5.8h-.8v-5.8ZM393,92.3c-.2,0-.3,0-.4-.2-.1,0-.2-.2-.2-.4s0-.3.2-.4c.1,0,.2-.2.4-.2s.3,0,.4.2c.1,0,.2.2.2.4s0,.3-.2.4c-.1,0-.3.2-.4.2Z"/>
    <path class="st6" d="M398.5,93.5c.7,0,1.3.2,1.7.6.4.4.6,1,.6,1.8v3.3h-.8v-3.3c0-.6-.2-1-.5-1.4-.3-.3-.7-.5-1.3-.5s-1.1.2-1.5.6-.5.9-.5,1.5v3h-.8v-5.8h.8v1.1c.2-.3.5-.6.9-.8.4-.2.8-.3,1.3-.3v.2h0Z"/>
    <path class="st6" d="M408.3,93.6v5.1c0,1-.2,1.7-.7,2.2s-1.2.7-2.1.7-1,0-1.5-.3c-.5-.2-.9-.4-1.2-.6l.4-.6c.3.3.6.4,1,.6.4,0,.8.2,1.3.2s1.3-.2,1.6-.5c.3-.3.5-.9.5-1.6v-.7c-.2.4-.6.6-1,.8-.4.2-.8.3-1.3.3s-1,0-1.5-.4c-.4-.2-.8-.6-1-1-.3-.4-.4-.9-.4-1.5s.1-1,.4-1.4.6-.8,1-1,.9-.4,1.5-.4.9,0,1.3.3c.4.2.7.5,1,.8v-1.1h.8,0ZM405.4,98.4c.4,0,.8,0,1.1-.3.3-.2.6-.4.8-.8.2-.3.3-.7.3-1.1s0-.8-.3-1.1c-.2-.3-.4-.6-.8-.8-.3-.2-.7-.3-1.1-.3s-.8,0-1.1.3c-.3.2-.6.4-.8.7-.2.3-.3.7-.3,1.1s0,.8.3,1.1c.2.3.5.6.8.8.3.2.7.3,1.1.3h0Z"/>
  </g>
  <g>
    <g class="st16">
      <g class="st2">
        <path class="st8" d="M440.2,85.2h21.3v21.3h-21.3v-21.3Z"/>
      </g>
    </g>
    <g class="st14">
      <path class="st6" d="M450.7,89.3c-3.6,0-6.5,2.9-6.4,6.5,0,1.5.5,2.8,1.5,4,.2.2.2.4,0,.6l-.6,1c-.2.3,0,.6.4.5l1.9-.5h.4c.8.4,1.7.6,2.7.6,3.6,0,6.6-2.8,6.6-6.4s-2.9-6.5-6.5-6.5v.2ZM450.8,101.4h-1.1c-.4,0-.7-.2-1.1-.3-.3,0-.7-.3-1-.5s-.6-.4-.9-.7c-.3-.3-.5-.5-.7-.9-.2-.3-.4-.6-.5-1-.1-.3-.3-.7-.3-1.1s-.1-.7-.1-1.1c0-3.1,2.5-5.7,5.7-5.7s5.7,2.5,5.7,5.6-2.5,5.7-5.7,5.7h0Z"/>
    </g>
    <path class="st6" d="M449.7,93h0l.3.7c.2.3.1.6-.2.9-.3.3-.3.5-.2.9.2.4.6,1,1.1,1.4.3.2.6.2.8,0h.2c.2-.3.4-.3.7-.2l.9.3c.2,0,.3.2.4.4s0,.4,0,.6h0l-.2.5c0,.2-.2.3-.4.3h-.5c-1.4-.3-4.6-1.6-4.9-5.3,0-.3.1-.6.4-.7l.4-.2h.6c.2,0,.3.2.4.4h.2Z"/>
    <path class="st6" d="M472.7,95.8h-2v2h-.7v-2h-2v-.6h2v-2h.7v2h2v.6Z"/>
    <path class="st6" d="M476,94.8c1.1,0,1.9.2,2.4.6s.8.9.8,1.7-.1.8-.3,1.2c-.2.3-.5.6-.9.8-.4.2-.9.3-1.5.3s-1.1,0-1.6-.3c-.5-.2-.9-.4-1.2-.7l.4-.6c.3.3.6.5,1,.6.4.2.9.2,1.4.2s1.1,0,1.5-.4c.3-.3.5-.7.5-1.1s-.2-.9-.6-1.2c-.4-.3-1.1-.4-2-.4h-1.6l.4-3.8h4.2v.7h-3.5l-.3,2.5h1,0Z"/>
    <path class="st6" d="M482.2,94.8c1.1,0,1.9.2,2.4.6s.8.9.8,1.7-.1.8-.3,1.2c-.2.3-.5.6-.9.8-.4.2-.9.3-1.5.3s-1.1,0-1.6-.3c-.5-.2-.9-.4-1.2-.7l.4-.6c.3.3.6.5,1,.6.4.2.9.2,1.4.2s1.1,0,1.5-.4c.3-.3.5-.7.5-1.1s-.2-.9-.6-1.2c-.4-.3-1.1-.4-2-.4h-1.6l.4-3.8h4.2v.7h-3.5l-.3,2.5h1,0Z"/>
    <path class="st6" d="M485.8,99.3"/>
    <path class="st6" d="M491.1,101.5c-.4-.7-.7-1.4-1-2.3-.2-.9-.3-1.8-.3-2.8s.1-1.9.3-2.8c.2-.9.5-1.7,1-2.3h.7c-.4.7-.7,1.5-.9,2.4-.2.8-.3,1.8-.3,2.8s0,1.9.3,2.8c.2.8.5,1.6.9,2.4h-.7v-.2Z"/>
    <path class="st6" d="M497.2,95.3c.5.2.9.4,1.1.7.3.3.4.7.4,1.1s-.1.9-.4,1.2c-.2.3-.6.6-1,.8-.4.2-1,.3-1.6.3-.9,0-1.6-.2-2.2-.6-.5-.4-.8-.9-.8-1.6s.1-.8.4-1.1c.3-.3.6-.6,1.1-.7-.4-.2-.7-.4-.9-.7s-.3-.6-.3-1c0-.6.2-1.1.7-1.5s1.1-.5,2-.5,1,0,1.4.3c.4.2.7.4,1,.7.2.3.3.7.3,1.1s-.1.7-.3,1-.5.5-.9.7v-.2h0ZM493.8,93.6c0,.4.2.8.5,1s.8.4,1.4.4,1.1,0,1.4-.4.5-.6.5-1-.2-.8-.5-1c-.3-.3-.8-.4-1.4-.4s-1.1,0-1.4.4c-.3.2-.5.6-.5,1ZM495.7,98.7c.7,0,1.2,0,1.6-.4s.6-.7.6-1.1-.2-.8-.6-1.1c-.4-.3-.9-.4-1.6-.4s-1.2,0-1.6.4-.6.7-.6,1.1.2.9.6,1.1c.4.3.9.4,1.6.4Z"/>
    <path class="st6" d="M501.9,91.7v7.7h-.8v-7h-1.8v-.7h2.6,0Z"/>
    <path class="st6" d="M503.7,101.5c.4-.7.8-1.5,1-2.4.2-.8.3-1.8.3-2.8s-.1-1.9-.3-2.8c-.2-.8-.5-1.6-1-2.4h.8c.4.7.7,1.4.9,2.3.2.9.3,1.8.3,2.8s-.1,1.9-.3,2.8c-.2.9-.5,1.6-.9,2.3h-.8v.2Z"/>
    <path class="st6" d="M506.8,99.3"/>
    <path class="st6" d="M512.7,91.6c1,0,1.8.3,2.3,1s.8,1.6.8,2.8,0,1.6-.4,2.2c-.3.6-.7,1-1.2,1.3s-1.1.5-1.8.5-1.4,0-1.8-.4l.3-.6c.4.2.9.4,1.5.4s1.5-.3,2-.8.7-1.3.7-2.4,0-.4,0-.6c-.2.4-.5.7-.9,1-.4.2-.9.3-1.4.3s-.9,0-1.3-.3c-.4-.2-.7-.5-.9-.8-.2-.3-.3-.8-.3-1.2s.1-.9.3-1.2c.2-.4.5-.6.9-.8.4-.2.9-.3,1.4-.3h-.2,0ZM512.7,95.6c.4,0,.7,0,1-.2s.5-.4.7-.6c.2-.3.3-.5.3-.9s0-.6-.3-.8c-.2-.3-.4-.4-.7-.6s-.7-.2-1.1-.2-1,.2-1.4.5c-.3.3-.5.7-.5,1.2s.2.9.5,1.2c.3.3.8.4,1.4.4h0Z"/>
    <path class="st6" d="M519.3,91.6c1,0,1.8.3,2.3,1s.8,1.6.8,2.8,0,1.6-.4,2.2c-.3.6-.7,1-1.2,1.3s-1.1.5-1.8.5-1.4,0-1.8-.4l.3-.6c.4.2.9.4,1.5.4s1.5-.3,2-.8.7-1.3.7-2.4,0-.4,0-.6c-.2.4-.5.7-.9,1-.4.2-.9.3-1.4.3s-.9,0-1.3-.3c-.4-.2-.7-.5-.9-.8s-.3-.8-.3-1.2,0-.9.3-1.2c.2-.4.5-.6.9-.8.4-.2.9-.3,1.4-.3h-.2,0ZM519.4,95.6c.4,0,.7,0,1-.2s.5-.4.7-.6c.2-.3.3-.5.3-.9s0-.6-.3-.8c-.2-.3-.4-.4-.7-.6s-.7-.2-1.1-.2-1,.2-1.4.5c-.3.3-.5.7-.5,1.2s.2.9.5,1.2c.3.3.8.4,1.4.4h0Z"/>
    <path class="st6" d="M530.1,97.3h-1.5v2h-.8v-2h-4.3v-.6l4.1-5.1h.9l-3.9,5h3.3v-1.8h.8v1.8h1.5v.7h0Z"/>
    <path class="st6" d="M536.1,98.6v.7h-5.4v-.6l3.2-3.1c.4-.4.7-.7.8-1s.2-.6.2-.9-.2-.8-.5-1c-.3-.3-.7-.4-1.3-.4-.9,0-1.6.3-2.1.9l-.6-.5c.3-.3.7-.6,1.1-.8.5-.2,1-.3,1.6-.3s1.4.2,1.9.6.7.9.7,1.5,0,.8-.3,1.1c-.2.4-.5.8-1,1.3l-2.6,2.6h4.3,0Z"/>
    <path class="st6" d="M543.3,97.3h-1.5v2h-.8v-2h-4.3v-.6l4.1-5.1h.9l-3.9,5h3.3v-1.8h.8v1.8h1.5v.7h0Z"/>
    <path class="st6" d="M544.3,96h2.9v.7h-2.9v-.7Z"/>
    <path class="st6" d="M553.5,98.6v.7h-5.4v-.6l3.2-3.1c.4-.4.7-.7.8-1s.2-.6.2-.9-.2-.8-.5-1c-.3-.3-.7-.4-1.3-.4-.9,0-1.6.3-2.1.9l-.6-.5c.3-.3.7-.6,1.1-.8.5-.2,1-.3,1.6-.3s1.4.2,1.9.6.7.9.7,1.5,0,.8-.3,1.1c-.2.4-.5.8-1,1.3l-2.6,2.6h4.3,0Z"/>
    <path class="st6" d="M556.6,91.7v7.7h-.8v-7h-1.8v-.7h2.6Z"/>
    <path class="st6" d="M560.5,91.7v7.7h-.8v-7h-1.8v-.7h2.6Z"/>
    <path class="st6" d="M567.6,98.6v.7h-5.4v-.6l3.2-3.1c.4-.4.7-.7.8-1s.2-.6.2-.9-.2-.8-.5-1c-.3-.3-.7-.4-1.3-.4-.9,0-1.6.3-2.1.9l-.6-.5c.3-.3.7-.6,1.1-.8.5-.2,1-.3,1.6-.3s1.4.2,1.9.6.7.9.7,1.5,0,.8-.3,1.1c-.2.4-.5.8-1,1.3l-2.6,2.6h4.3,0Z"/>
  </g>
  <g>
    <g class="st0">
      <path class="st8" d="M461.2,59.1c0,.7,0,1.4-.2,2.1s-.3,1.3-.6,2c-.3.6-.6,1.2-1,1.8-.4.6-.8,1.1-1.3,1.6s-1,.9-1.6,1.3-1.2.7-1.8,1c-.6.3-1.3.5-2,.6s-1.4.2-2,.2-1.4,0-2-.2c-.7,0-1.3-.3-2-.6-.6-.3-1.2-.6-1.8-1-.6-.4-1.1-.8-1.6-1.3s-.9-1-1.3-1.6-.7-1.2-1-1.8-.5-1.3-.6-2-.2-1.4-.2-2.1,0-1.4.2-2,.3-1.3.6-2c.3-.6.6-1.2,1-1.8s.8-1.1,1.3-1.6,1-.9,1.6-1.3c.6-.4,1.2-.7,1.8-1,.6-.3,1.3-.5,2-.6s1.4-.2,2-.2,1.4,0,2,.2,1.3.3,2,.6c.6.3,1.2.6,1.8,1,.6.4,1.1.8,1.6,1.3s.9,1,1.3,1.6.7,1.2,1,1.8.5,1.3.6,2,.2,1.4.2,2Z"/>
    </g>
    <path class="st6" d="M455.4,54.4c-1.2-1.2-2.9-1.9-4.6-1.9s-3.4.7-4.6,1.9-1.9,2.9-1.9,4.6.7,3.4,1.9,4.6,2.9,1.9,4.6,1.9,3.4-.7,4.6-1.9,1.9-2.9,1.9-4.6-.7-3.4-1.9-4.6ZM444.9,59.1c0-.7.1-1.4.4-2.1h2.4c-.1.7-.2,1.4-.2,2.1s0,1.4.2,2h-2.4c-.2-.6-.4-1.3-.4-2ZM448.2,59.1c0-.7,0-1.4.2-2.1h2v4.1h-2c-.1-.6-.2-1.3-.2-2ZM452.4,54.8c.2.4.4.9.5,1.4h-1.8v-3c.5.2,1,.7,1.4,1.5h-.1ZM450.4,53.3v3h-1.8c.1-.5.3-1,.5-1.4.4-.8.9-1.4,1.4-1.5h-.1ZM450.4,61.8v3c-.5-.2-1-.7-1.4-1.5-.2-.4-.4-1-.5-1.5,0,0,1.9,0,1.9,0ZM451.1,64.8v-3h1.9c-.1.5-.3,1-.5,1.5-.4.8-.9,1.4-1.4,1.5ZM451.1,61.1v-4.1h2c.1.7.2,1.4.2,2.1s0,1.4-.2,2h-2ZM453.8,57h2.4c.3.6.4,1.3.4,2.1s-.1,1.4-.4,2h-2.4c0-.6.2-1.3.2-2s0-1.4-.2-2.1ZM455.8,56.3h-2.2c-.1-.6-.3-1.2-.6-1.7-.2-.4-.4-.7-.6-1,1.4.5,2.6,1.5,3.4,2.8h0ZM449,53.5c-.2.3-.4.6-.6,1-.2.5-.4,1.1-.6,1.7h-2.2c.7-1.3,1.9-2.3,3.4-2.8h0ZM445.6,61.8h2.2c.1.7.3,1.3.6,1.8.2.4.4.7.6,1-1.5-.5-2.7-1.5-3.4-2.8h0ZM452.5,64.6c.2-.3.4-.6.6-1,.3-.5.4-1.1.6-1.8h2.2c-.7,1.3-1.9,2.4-3.4,2.8h0Z"/>
    <path class="st6" d="M476.7,56.9l-2.2,5.8h-.7l-1.8-4.7-1.8,4.7h-.8l-2.2-5.8h.8l1.8,4.9,1.9-4.9h.7l1.8,4.9,1.8-4.9h.7Z"/>
    <path class="st6" d="M486.2,56.9l-2.2,5.8h-.7l-1.8-4.7-1.8,4.7h-.8l-2.2-5.8h.8l1.8,4.9,1.9-4.9h.7l1.8,4.9,1.8-4.9h.7Z"/>
    <path class="st6" d="M495.8,56.9l-2.2,5.8h-.7l-1.8-4.7-1.8,4.7h-.8l-2.2-5.8h.8l1.8,4.9,1.9-4.9h.7l1.8,4.9,1.8-4.9h.7Z"/>
    <path class="st6" d="M496.7,62.7c-.2,0-.3,0-.4-.2-.1,0-.2-.3-.2-.4s0-.3.2-.4c.1,0,.3-.2.4-.2s.3,0,.4.2c.1,0,.2.3.2.4s0,.3-.2.4c-.1,0-.2.2-.4.2Z"/>
    <path class="st6" d="M504.1,54.5v8.1h-.8v-1.1c-.2.4-.6.7-.9.9-.4.2-.8.3-1.3.3s-1,0-1.5-.4c-.4-.3-.8-.6-1-1-.3-.4-.4-.9-.4-1.5s.1-1.1.4-1.5c.3-.5.6-.8,1-1,.4-.3.9-.4,1.5-.4s.9,0,1.3.3c.4.2.7.5.9.9v-3.5h.8ZM501.1,62c.4,0,.8,0,1.1-.3.3-.2.6-.4.8-.8.2-.3.3-.7.3-1.2s0-.8-.3-1.2c-.2-.3-.4-.6-.8-.8-.3-.2-.7-.3-1.1-.3s-.8,0-1.1.3c-.3.2-.6.4-.8.8-.2.3-.3.7-.3,1.2s0,.8.3,1.2c.2.3.4.6.8.8.3.2.7.3,1.1.3Z"/>
    <path class="st6" d="M511.4,56.9v5.8h-.7v-1c-.2.3-.5.6-.9.8s-.8.3-1.2.3c-.8,0-1.3-.2-1.8-.6-.4-.4-.6-1-.6-1.9v-3.4h.8v3.3c0,.6.1,1.1.4,1.4.3.3.7.5,1.3.5s1.1-.2,1.4-.5c.3-.4.5-.9.5-1.6v-3h.8Z"/>
    <path class="st6" d="M514.4,58c.2-.4.4-.7.8-.9.4-.2.8-.3,1.3-.3v.8h-.2c-.6,0-1.1.2-1.4.5-.3.4-.5.9-.5,1.6v2.9h-.8v-5.8h.8v1.1h0Z"/>
    <path class="st6" d="M517.9,56.9h.8v5.8h-.8v-5.8ZM518.3,55.6c-.2,0-.3,0-.4-.2,0,0-.2-.2-.2-.4s0-.3.2-.4c0,0,.2-.2.4-.2s.3,0,.4.2c0,0,.2.2.2.4s0,.3-.2.4c0,0-.3.2-.4.2Z"/>
    <path class="st6" d="M521,62.7c-.2,0-.3,0-.4-.2,0,0-.2-.3-.2-.4s0-.3.2-.4c0,0,.3-.2.4-.2s.3,0,.4.2c0,0,.2.3.2.4s0,.3-.2.4c0,0-.2.2-.4.2Z"/>
    <path class="st6" d="M525.4,62.7c-.6,0-1.1,0-1.5-.4-.4-.3-.8-.6-1.1-1-.3-.5-.4-1-.4-1.5s0-1.1.4-1.5c.3-.4.6-.8,1.1-1,.5-.3,1-.4,1.5-.4s.9,0,1.3.3c.4.2.7.5.9.9l-.6.4c-.2-.3-.4-.5-.7-.6s-.6-.2-.9-.2-.8,0-1.1.3c-.3.2-.6.4-.8.8-.2.3-.3.7-.3,1.2s0,.8.3,1.2c.2.3.5.6.8.8s.7.3,1.1.3.6,0,.9-.2c.3,0,.5-.4.7-.6l.6.4c-.2.4-.5.7-.9.9s-.8.3-1.3.3v-.4Z"/>
    <path class="st6" d="M531.5,62.7c-.6,0-1.1,0-1.5-.4-.4-.3-.8-.6-1.1-1.1-.3-.4-.4-.9-.4-1.5s0-1.1.4-1.5c.3-.4.6-.8,1.1-1,.4-.3.9-.4,1.5-.4s1.1,0,1.5.4c.4.3.8.6,1,1,.3.4.4,1,.4,1.5s0,1.1-.4,1.5c-.3.4-.6.8-1,1.1s-.9.4-1.5.4ZM531.5,62c.4,0,.8,0,1.1-.3.3-.2.6-.4.8-.8.2-.3.3-.7.3-1.2s0-.8-.3-1.2c-.2-.3-.4-.6-.8-.8-.3-.2-.7-.3-1.1-.3s-.8,0-1.1.3c-.3.2-.6.4-.8.8-.2.3-.3.7-.3,1.2s0,.8.3,1.2c.2.3.4.6.8.8.3.2.7.3,1.1.3Z"/>
    <path class="st6" d="M543.2,56.8c.7,0,1.3.2,1.7.6s.6,1,.6,1.9v3.3h-.8v-3.3c0-.6,0-1-.4-1.4-.3-.3-.7-.5-1.2-.5s-1.1.2-1.4.6c-.3.4-.5.9-.5,1.5v3h-.8v-3.3c0-.6,0-1-.4-1.4-.3-.3-.7-.5-1.2-.5s-1.1.2-1.4.6c-.3.4-.5.9-.5,1.5v3h-.8v-5.8h.8v1.1c.2-.3.5-.6.9-.8s.8-.3,1.3-.3.9,0,1.3.3c.4.2.6.5.8.9.2-.4.5-.7.9-.9s.9-.3,1.4-.3l-.3.2h0Z"/>
    <path class="st6" d="M547.7,62.7c-.2,0-.3,0-.4-.2,0,0-.2-.3-.2-.4s0-.3.2-.4c0,0,.3-.2.4-.2s.3,0,.4.2c0,0,.2.3.2.4s0,.3-.2.4c0,0-.2.2-.4.2Z"/>
    <path class="st6" d="M552.9,56.8c.5,0,1,0,1.5.4.4.2.8.6,1,1,.3.4.4,1,.4,1.5s0,1.1-.4,1.5c-.2.4-.6.8-1,1-.4.3-.9.4-1.5.4s-.9,0-1.3-.3c-.4-.2-.7-.5-.9-.9v1.1h-.8v-8.1h.8v3.5c.3-.4.6-.7.9-.9.4-.2.8-.3,1.3-.3h0ZM552.9,62c.4,0,.8,0,1.1-.3.3-.2.6-.4.8-.8.2-.3.3-.7.3-1.2s0-.8-.3-1.2c-.2-.3-.4-.6-.8-.8-.3-.2-.7-.3-1.1-.3s-.8,0-1.1.3c-.3.2-.6.4-.8.8-.2.3-.3.7-.3,1.2s0,.8.3,1.2c.2.3.4.6.8.8.3.2.7.3,1.1.3Z"/>
    <path class="st6" d="M558.1,58c.2-.4.4-.7.8-.9.4-.2.8-.3,1.3-.3v.8h-.2c-.6,0-1.1.2-1.4.5-.3.4-.5.9-.5,1.6v2.9h-.8v-5.8h.8v1.1h0Z"/>
  </g>
  <g>
    <g class="st1">
      <image class="st13" width="243" height="243" transform="translate(0 0)" xlink:href="Footer Op1-4.png"/>
    </g>
    <g class="st15">
      <g class="st4">
        <path class="st8" d="M308.5,48.6h21.3v21.3h-21.3s0-21.3,0-21.3Z"/>
      </g>
    </g>
    <g class="st5">
      <path class="st7" d="M324.8,65.1h-2.3v-4.1c0-1.1-.5-1.7-1.4-1.7s-1.5.7-1.5,1.7v4.1h-2.3v-7.6h2.3v.9s.7-1.3,2.4-1.3,2.9,1,2.9,3.1v4.9h-.1ZM314.5,56.2c-.8,0-1.4-.6-1.4-1.4s.6-1.4,1.4-1.4,1.4.6,1.4,1.4-.6,1.4-1.4,1.4ZM313.1,65.1h2.9v-7.6h-2.9v7.6Z"/>
    </g>
    <path class="st6" d="M338.8,53.4h.7l-3.6,10.3h-.7l3.6-10.3Z"/>
    <path class="st6" d="M344.7,54.5v8.1h-.8v-1.1c-.2.4-.6.7-.9.9-.4.2-.8.3-1.3.3s-1,0-1.5-.4c-.4-.3-.8-.6-1-1-.3-.4-.4-.9-.4-1.5s.1-1.1.4-1.5c.3-.5.6-.8,1-1,.4-.3.9-.4,1.5-.4s.9,0,1.3.3c.4.2.7.5.9.9v-3.5h.8ZM341.8,62c.4,0,.8,0,1.1-.3.3-.2.6-.4.8-.8.2-.3.3-.7.3-1.2s0-.8-.3-1.2c-.2-.3-.4-.6-.8-.8-.3-.2-.7-.3-1.1-.3s-.8,0-1.1.3c-.3.2-.6.4-.8.8-.2.3-.3.7-.3,1.2s0,.8.3,1.2c.2.3.4.6.8.8.3.2.7.3,1.1.3Z"/>
    <path class="st6" d="M352.1,56.9v5.8h-.7v-1c-.2.3-.5.6-.9.8s-.8.3-1.2.3c-.8,0-1.3-.2-1.8-.6-.4-.4-.6-1-.6-1.9v-3.4h.8v3.3c0,.6.1,1.1.4,1.4.3.3.7.5,1.3.5s1.1-.2,1.4-.5c.3-.4.5-.9.5-1.6v-3h.8Z"/>
    <path class="st6" d="M355,58c.2-.4.4-.7.8-.9s.8-.3,1.3-.3v.8h-.2c-.6,0-1.1.2-1.4.5-.3.4-.5.9-.5,1.6v2.9h-.8v-5.8h.8v1.1h0Z"/>
    <path class="st6" d="M358.6,56.9h.8v5.8h-.8v-5.8ZM359,55.6c-.2,0-.3,0-.4-.2-.1,0-.2-.2-.2-.4s0-.3.2-.4c.1,0,.2-.2.4-.2s.3,0,.4.2c.1,0,.2.2.2.4s0,.3-.2.4c-.1,0-.3.2-.4.2Z"/>
    <path class="st6" d="M364.6,62.3c-.2,0-.3.2-.6.3h-.7c-.5,0-1,0-1.3-.4s-.4-.7-.4-1.3v-3.5h-1v-.7h1v-1.3h.8v1.3h1.8v.7h-1.8v3.4c0,.3,0,.6.3.8.2.2.4.3.8.3h.5c.2,0,.3,0,.4-.2l.3.6h0Z"/>
    <path class="st6" d="M366.7,58c.2-.4.4-.7.8-.9s.8-.3,1.3-.3v.8h-.2c-.6,0-1.1.2-1.4.5-.3.4-.5.9-.5,1.6v2.9h-.8v-5.8h.8v1.1h0Z"/>
    <path class="st6" d="M372.3,56.8c.8,0,1.3.2,1.7.6.4.4.6.9.6,1.7v3.6h-.8v-.9c-.2.3-.4.5-.8.7-.3.2-.7.3-1.2.3s-1.2-.2-1.5-.5c-.4-.3-.6-.7-.6-1.2s.2-.9.5-1.2c.4-.3.9-.5,1.7-.5h1.8v-.4c0-.5-.1-.9-.4-1.1-.3-.3-.7-.4-1.2-.4s-.7,0-1.1.2c-.3,0-.6.3-.9.5l-.4-.6c.3-.3.6-.4,1-.6.4,0,.9-.2,1.3-.2,0,0,.3,0,.3,0ZM372,62.1c.4,0,.8,0,1.1-.3.3-.2.6-.5.7-.9v-.9h-1.8c-1,0-1.5.3-1.5,1s.1.6.4.8.6.3,1.1.3h0Z"/>
    <path class="st6" d="M382.1,54.5v8.1h-.8v-1.1c-.2.4-.6.7-.9.9-.4.2-.8.3-1.3.3s-1,0-1.5-.4c-.4-.3-.8-.6-1-1-.3-.4-.4-.9-.4-1.5s.1-1.1.4-1.5c.3-.5.6-.8,1-1,.4-.3.9-.4,1.5-.4s.9,0,1.3.3c.4.2.7.5.9.9v-3.5h.8ZM379.1,62c.4,0,.8,0,1.1-.3.3-.2.6-.4.8-.8.2-.3.3-.7.3-1.2s0-.8-.3-1.2c-.2-.3-.4-.6-.8-.8-.3-.2-.7-.3-1.1-.3s-.8,0-1.1.3c-.3.2-.6.4-.8.8-.2.3-.3.7-.3,1.2s0,.8.3,1.2c.2.3.4.6.8.8.3.2.7.3,1.1.3Z"/>
    <path class="st6" d="M384.2,56.9h.8v5.8h-.8v-5.8ZM384.6,55.6c-.2,0-.3,0-.4-.2-.1,0-.2-.2-.2-.4s0-.3.2-.4c.1,0,.2-.2.4-.2s.3,0,.4.2c.1,0,.2.2.2.4s0,.3-.2.4c-.1,0-.3.2-.4.2Z"/>
    <path class="st6" d="M390.1,56.8c.7,0,1.3.2,1.7.6.4.4.6,1,.6,1.8v3.3h-.8v-3.3c0-.6-.2-1-.5-1.4-.3-.3-.7-.5-1.3-.5s-1.1.2-1.5.6c-.4.4-.5.9-.5,1.5v3h-.8v-5.8h.8v1.1c.2-.3.5-.6.9-.8s.8-.3,1.3-.3v.2h0Z"/>
    <path class="st6" d="M400,56.9v5.1c0,1-.2,1.7-.7,2.2-.5.5-1.2.7-2.1.7s-1,0-1.5-.3c-.5-.2-.9-.4-1.2-.6l.4-.6c.3.3.6.4,1,.6.4,0,.8.2,1.3.2s1.3-.2,1.6-.5c.3-.3.5-.9.5-1.6v-.7c-.2.4-.6.6-1,.8s-.8.3-1.3.3-1,0-1.5-.4c-.4-.2-.8-.6-1-1-.3-.4-.4-.9-.4-1.5s.1-1,.4-1.4.6-.8,1-1,.9-.4,1.5-.4.9,0,1.3.3.7.5,1,.8v-1.1h.8,0ZM397,61.7c.4,0,.8,0,1.1-.3.3-.2.6-.4.8-.8.2-.3.3-.7.3-1.1s0-.8-.3-1.1c-.2-.3-.4-.6-.8-.8-.3-.2-.7-.3-1.1-.3s-.8,0-1.1.3c-.3.2-.6.4-.8.7-.2.3-.3.7-.3,1.1s0,.8.3,1.1c.2.3.5.6.8.8s.7.3,1.1.3h0Z"/>
  </g>
  <g>
    <path class="st6" d="M352.6,143.3l-1.8-2.5-1.8,2.5h-1.8l2.8-3.6-2.6-3.5h1.8l1.8,2.3,1.8-2.3h1.8l-2.7,3.5,2.8,3.6h-2.1,0Z"/>
    <path class="st6" d="M358.7,143.4c-.7,0-1.4-.2-2-.5s-1-.7-1.4-1.3c-.3-.6-.5-1.2-.5-1.9s.2-1.3.5-1.9c.3-.6.8-1,1.4-1.3s1.2-.5,2-.5,1.3.1,1.9.4c.5.3.9.7,1.2,1.2l-1.3.8c-.2-.3-.5-.6-.8-.8s-.6-.3-1-.3c-.6,0-1.1.2-1.6.6-.4.4-.6.9-.6,1.6s.2,1.2.6,1.6c.4.4.9.6,1.6.6s.7,0,1-.3c.3-.2.6-.4.8-.7l1.3.7c-.3.5-.7,1-1.2,1.3s-1.1.4-1.8.4v.3h-.1Z"/>
    <path class="st6" d="M369.8,139.8v.5h-5.6c0,.5.4.9.8,1.3.4.3.9.5,1.5.5s1.4-.3,1.9-.8l.9,1c-.3.4-.7.7-1.2.9s-1,.3-1.6.3-1.5-.2-2.1-.5-1.1-.7-1.4-1.3-.5-1.2-.5-1.9.2-1.3.5-1.9c.3-.6.8-1,1.3-1.3.6-.3,1.2-.5,1.9-.5s1.3.2,1.9.5,1,.7,1.3,1.3.5,1.2.5,1.9h0ZM366.2,137.5c-.5,0-1,.2-1.4.5s-.6.7-.7,1.3h4c0-.5-.3-.9-.7-1.3-.4-.3-.8-.5-1.4-.5h.2Z"/>
    <path class="st6" d="M371.4,133.4h1.7v9.9h-1.7v-9.9Z"/>
    <path class="st6" d="M381.9,139.8v.5h-5.6c0,.5.4.9.8,1.3.4.3.9.5,1.5.5s1.4-.3,1.9-.8l.9,1c-.3.4-.7.7-1.2.9s-1,.3-1.6.3-1.5-.2-2.1-.5-1.1-.7-1.4-1.3-.5-1.2-.5-1.9.2-1.3.5-1.9c.3-.6.8-1,1.3-1.3.6-.3,1.2-.5,1.9-.5s1.3.2,1.9.5,1,.7,1.3,1.3.5,1.2.5,1.9h0ZM378.3,137.5c-.5,0-1,.2-1.4.5s-.6.7-.7,1.3h4c0-.5-.3-.9-.7-1.3-.4-.3-.8-.5-1.4-.5h.2ZM379.5,135.2l-1.2-1-1.2,1h-1.4l1.8-1.8h1.5l1.8,1.8h-1.4.1Z"/>
    <path class="st6" d="M387.6,136.1c.9,0,1.6.3,2.2.8.5.5.8,1.3.8,2.3v4.1h-1.7v-3.9c0-.6-.1-1.1-.4-1.4-.3-.3-.7-.5-1.3-.5s-1.1.2-1.5.6c-.4.4-.5.9-.5,1.6v3.6h-1.7v-7.1h1.6v.9c.3-.3.6-.6,1-.7.4-.2.9-.3,1.4-.3h.1Z"/>
    <path class="st6" d="M396,143.4c-.7,0-1.4-.2-2-.5s-1-.7-1.4-1.3c-.3-.6-.5-1.2-.5-1.9s.2-1.3.5-1.9c.3-.6.8-1,1.4-1.3s1.2-.5,2-.5,1.3.1,1.9.4c.5.3.9.7,1.2,1.2l-1.3.8c-.2-.3-.5-.6-.8-.8s-.6-.3-1-.3c-.6,0-1.1.2-1.6.6-.4.4-.6.9-.6,1.6s.2,1.2.6,1.6c.4.4.9.6,1.6.6s.7,0,1-.3c.3-.2.6-.4.8-.7l1.3.7c-.3.5-.7,1-1.2,1.3s-1.1.4-1.8.4v.3h-.1Z"/>
    <path class="st6" d="M400.5,136.2h1.7v7.1h-1.7v-7.1ZM401.3,135c-.3,0-.6,0-.8-.3-.2-.2-.3-.4-.3-.7s0-.5.3-.7c.2-.2.5-.3.8-.3s.6,0,.8.3c.2.2.3.4.3.7s-.1.5-.3.8c-.2.2-.4.3-.8.3h0Z"/>
    <path class="st6" d="M407,136.1c1.1,0,1.9.3,2.4.8.6.5.8,1.3.8,2.3v4.2h-1.6v-.9c-.2.3-.5.6-.9.7-.4.2-.8.2-1.4.2s-1,0-1.4-.3c-.4-.2-.7-.4-.9-.8-.2-.3-.3-.7-.3-1.1,0-.6.2-1.2.7-1.5.5-.4,1.2-.6,2.3-.6h1.9c0-.6-.2-1-.5-1.3s-.7-.4-1.3-.4-.8,0-1.2.2c-.4.1-.7.3-1,.5l-.7-1.2c.4-.3.8-.5,1.4-.7.5-.2,1.1-.2,1.7-.2h0ZM406.8,142.2c.4,0,.8,0,1.1-.3.3-.2.6-.5.7-.8v-.8h-1.7c-1,0-1.4.3-1.4,1s.1.6.4.7c.2.2.6.3,1,.3h-.1Z"/>
    <path class="st6" d="M411.3,143.3"/>
    <path class="st6" d="M422.8,139.8v.5h-5.6c0,.5.4.9.8,1.3.4.3.9.5,1.5.5s1.4-.3,1.9-.8l.9,1c-.3.4-.7.7-1.2.9s-1,.3-1.6.3-1.5-.2-2.1-.5-1.1-.7-1.4-1.3-.5-1.2-.5-1.9.2-1.3.5-1.9c.3-.6.8-1,1.3-1.3.6-.3,1.2-.5,1.9-.5s1.3.2,1.9.5,1,.7,1.3,1.3.5,1.2.5,1.9h0ZM419.2,137.5c-.5,0-1,.2-1.4.5s-.6.7-.7,1.3h4c0-.5-.3-.9-.7-1.3-.4-.3-.8-.5-1.4-.5h.2Z"/>
    <path class="st6" d="M423.3,143.3"/>
    <path class="st6" d="M432.6,143.5c-.9,0-1.8-.2-2.6-.6s-1.4-1-1.8-1.7-.6-1.6-.6-2.5.2-1.7.6-2.5c.4-.7,1-1.3,1.8-1.7s1.6-.6,2.6-.6,1.5.1,2.1.4c.6.3,1.2.6,1.6,1.1l-1.1,1.1c-.7-.7-1.5-1.1-2.5-1.1s-1.2.1-1.7.4c-.5.3-.9.7-1.2,1.2-.3.5-.4,1.1-.4,1.7s.1,1.2.4,1.7.7.9,1.2,1.2,1.1.4,1.7.4c1,0,1.8-.4,2.5-1.1l1.1,1.1c-.4.5-1,.9-1.6,1.1-.6.3-1.3.4-2.1.4h0Z"/>
    <path class="st6" d="M440.7,143.4c-.7,0-1.4-.2-2-.5s-1-.7-1.4-1.3c-.3-.6-.5-1.2-.5-1.9s.2-1.3.5-1.9c.3-.6.8-1,1.4-1.3s1.2-.5,2-.5,1.4.2,2,.5,1,.7,1.4,1.3c.3.6.5,1.2.5,1.9s-.2,1.3-.5,1.9c-.3.6-.8,1-1.4,1.3s-1.2.5-2,.5ZM440.7,142c.6,0,1.1-.2,1.5-.6.4-.4.6-1,.6-1.6s-.2-1.2-.6-1.6c-.4-.4-.9-.6-1.5-.6s-1.1.2-1.5.6c-.4.4-.6.9-.6,1.6s.2,1.2.6,1.6c.4.4.9.6,1.5.6Z"/>
    <path class="st6" d="M450.1,136.1c.9,0,1.6.3,2.2.8.5.5.8,1.3.8,2.3v4.1h-1.7v-3.9c0-.6-.1-1.1-.4-1.4-.3-.3-.7-.5-1.3-.5s-1.1.2-1.5.6c-.4.4-.5.9-.5,1.6v3.6h-1.7v-7.1h1.6v.9c.3-.3.6-.6,1-.7.4-.2.9-.3,1.4-.3h.1Z"/>
    <path class="st6" d="M458.1,134.7c-.7,0-1,.4-1,1.1v.4h2v1.3h-1.9v5.7h-1.7v-5.7h-1.2v-1.3h1.2v-.5c0-.8.2-1.4.7-1.8.4-.4,1.1-.7,1.9-.7s1.1.1,1.5.4l-.5,1.3c-.3-.2-.6-.3-.9-.3h-.1Z"/>
    <path class="st6" d="M461.2,136.2h1.7v7.1h-1.7v-7.1ZM462,135c-.3,0-.6,0-.8-.3-.2-.2-.3-.4-.3-.7s0-.5.3-.7c.2-.2.5-.3.8-.3s.6,0,.8.3c.2.2.3.4.3.7s-.1.5-.3.8c-.2.2-.4.3-.8.3h0Z"/>
    <path class="st6" d="M467.8,136.1c1.1,0,1.9.3,2.4.8.6.5.8,1.3.8,2.3v4.2h-1.6v-.9c-.2.3-.5.6-.9.7-.4.2-.8.2-1.4.2s-1,0-1.4-.3c-.4-.2-.7-.4-.9-.8-.2-.3-.3-.7-.3-1.1,0-.6.2-1.2.7-1.5.5-.4,1.2-.6,2.3-.6h1.9c0-.6-.2-1-.5-1.3s-.7-.4-1.3-.4-.8,0-1.2.2c-.4.1-.7.3-1,.5l-.7-1.2c.4-.3.8-.5,1.4-.7.5-.2,1.1-.2,1.7-.2h0ZM467.5,142.2c.4,0,.8,0,1.1-.3.3-.2.6-.5.7-.8v-.8h-1.7c-1,0-1.4.3-1.4,1s.1.6.4.7c.2.2.6.3,1,.3h-.1Z"/>
    <path class="st6" d="M477.1,136.1c.7,0,1.3.2,1.9.5s1,.7,1.3,1.3c.3.5.5,1.2.5,1.9s-.2,1.4-.5,1.9c-.3.6-.7,1-1.3,1.3-.5.3-1.2.4-1.9.4s-.9,0-1.4-.3c-.4-.2-.7-.4-1-.8v.9h-1.6v-9.9h1.7v3.6c.3-.3.6-.6,1-.7.4-.2.8-.3,1.3-.3v.2h0ZM476.9,142c.6,0,1.1-.2,1.5-.6.4-.4.6-1,.6-1.6s-.2-1.2-.6-1.6c-.4-.4-.9-.6-1.5-.6s-.8,0-1.1.3c-.3.2-.6.4-.8.8-.2.3-.3.7-.3,1.2s0,.8.3,1.2c.2.3.4.6.8.8.3.2.7.3,1.1.3v-.2h0Z"/>
    <path class="st6" d="M482.3,136.2h1.7v7.1h-1.7v-7.1ZM483.1,135c-.3,0-.6,0-.8-.3-.2-.2-.3-.4-.3-.7s0-.5.3-.7c.2-.2.5-.3.8-.3s.6,0,.8.3c.2.2.3.4.3.7s-.1.5-.3.8c-.2.2-.4.3-.8.3h0Z"/>
    <path class="st6" d="M486.1,133.4h1.7v9.9h-1.7v-9.9Z"/>
    <path class="st6" d="M490,136.2h1.7v7.1h-1.7v-7.1ZM490.8,135c-.3,0-.6,0-.8-.3-.2-.2-.3-.4-.3-.7s0-.5.3-.7c.2-.2.5-.3.8-.3s.6,0,.8.3c.2.2.3.4.3.7s-.1.5-.3.8c-.2.2-.4.3-.8.3h0Z"/>
    <path class="st6" d="M500.8,133.4v9.9h-1.6v-.9c-.3.3-.6.6-1,.8s-.8.3-1.3.3-1.3-.1-1.9-.4c-.5-.3-1-.7-1.3-1.3s-.5-1.2-.5-1.9.2-1.4.5-1.9c.3-.6.8-1,1.3-1.3.6-.3,1.2-.5,1.9-.5s.9,0,1.3.3c.4.2.7.4,1,.7v-3.6h1.7v-.2h-.1ZM497.1,142c.4,0,.8,0,1.1-.3.3-.2.6-.4.8-.8.2-.3.3-.7.3-1.2s0-.8-.3-1.2c-.2-.3-.4-.6-.8-.8-.3-.2-.7-.3-1.1-.3s-.8,0-1.1.3c-.3.2-.6.4-.8.8-.2.3-.3.7-.3,1.2s0,.8.3,1.2c.2.3.4.6.8.8.3.2.7.3,1.1.3Z"/>
    <path class="st6" d="M505.7,136.1c1.1,0,1.9.3,2.4.8.6.5.8,1.3.8,2.3v4.2h-1.6v-.9c-.2.3-.5.6-.9.7-.4.2-.8.2-1.4.2s-1,0-1.4-.3c-.4-.2-.7-.4-.9-.8-.2-.3-.3-.7-.3-1.1,0-.6.2-1.2.7-1.5.5-.4,1.2-.6,2.3-.6h1.9c0-.6-.2-1-.5-1.3s-.7-.4-1.3-.4-.8,0-1.2.2c-.4.1-.7.3-1,.5l-.7-1.2c.4-.3.8-.5,1.4-.7.5-.2,1.1-.2,1.7-.2h0ZM505.5,142.2c.4,0,.8,0,1.1-.3.3-.2.6-.5.7-.8v-.8h-1.7c-1,0-1.4.3-1.4,1s.1.6.4.7c.2.2.6.3,1,.3h-.1Z"/>
    <path class="st6" d="M518.1,133.4v9.9h-1.6v-.9c-.3.3-.6.6-1,.8s-.8.3-1.3.3-1.3-.1-1.9-.4c-.5-.3-1-.7-1.3-1.3s-.5-1.2-.5-1.9.2-1.4.5-1.9c.3-.6.8-1,1.3-1.3.6-.3,1.2-.5,1.9-.5s.9,0,1.3.3c.4.2.7.4,1,.7v-3.6h1.7v-.2h-.1ZM514.4,142c.4,0,.8,0,1.1-.3.3-.2.6-.4.8-.8.2-.3.3-.7.3-1.2s0-.8-.3-1.2c-.2-.3-.4-.6-.8-.8-.3-.2-.7-.3-1.1-.3s-.8,0-1.1.3c-.3.2-.6.4-.8.8-.2.3-.3.7-.3,1.2s0,.8.3,1.2c.2.3.4.6.8.8.3.2.7.3,1.1.3Z"/>
    <path class="st6" d="M527,139.8v.5h-5.6c0,.5.4.9.8,1.3.4.3.9.5,1.5.5s1.4-.3,1.9-.8l.9,1c-.3.4-.7.7-1.2.9s-1,.3-1.6.3-1.5-.2-2.1-.5-1.1-.7-1.4-1.3c-.3-.6-.5-1.2-.5-1.9s.2-1.3.5-1.9c.3-.6.8-1,1.3-1.3.6-.3,1.2-.5,1.9-.5s1.3.2,1.9.5c.6.3,1,.7,1.3,1.3s.5,1.2.5,1.9h-.1ZM523.4,137.5c-.5,0-1,.2-1.4.5s-.6.7-.7,1.3h4c0-.5-.3-.9-.7-1.3-.4-.3-.8-.5-1.4-.5h.2Z"/>
    <path class="st6" d="M365.9,157.8v.5h-5.6c0,.5.4.9.8,1.3.4.3.9.5,1.5.5s1.4-.3,1.9-.8l.9,1c-.3.4-.7.7-1.2.9s-1,.3-1.6.3-1.5-.2-2.1-.5-1.1-.7-1.4-1.3-.5-1.2-.5-1.9.2-1.3.5-1.9c.3-.6.8-1,1.3-1.3.6-.3,1.2-.5,1.9-.5s1.3.2,1.9.5,1,.7,1.3,1.3.5,1.2.5,1.9h0ZM362.3,155.5c-.5,0-1,.2-1.4.5s-.6.7-.7,1.3h4c0-.5-.3-.9-.7-1.3-.4-.3-.8-.5-1.4-.5h.2Z"/>
    <path class="st6" d="M376.5,154.1c.9,0,1.6.3,2.1.8s.8,1.3.8,2.3v4.1h-1.7v-3.9c0-.6-.1-1.1-.4-1.4-.3-.3-.7-.5-1.2-.5s-1,.2-1.4.6c-.3.4-.5.9-.5,1.6v3.6h-1.7v-3.9c0-.6-.1-1.1-.4-1.4-.3-.3-.7-.5-1.2-.5s-1,.2-1.4.6c-.3.4-.5.9-.5,1.6v3.6h-1.7v-7.1h1.6v.9c.3-.3.6-.6,1-.7.4-.2.9-.3,1.4-.3s1,.1,1.4.3.7.5,1,.9c.3-.4.7-.7,1.1-.9.5-.2,1-.3,1.5-.3h.2Z"/>
    <path class="st6" d="M380.4,161.3"/>
    <path class="st6" d="M389.7,161.5c-.9,0-1.8-.2-2.6-.6s-1.4-1-1.8-1.7-.6-1.6-.6-2.5.2-1.7.6-2.5c.4-.7,1-1.3,1.8-1.7s1.6-.6,2.6-.6,1.5.1,2.1.4c.6.3,1.2.6,1.6,1.1l-1.1,1.1c-.7-.7-1.5-1.1-2.5-1.1s-1.2.1-1.7.4c-.5.3-.9.7-1.2,1.2-.3.5-.4,1.1-.4,1.7s.1,1.2.4,1.7.7.9,1.2,1.2,1.1.4,1.7.4c1,0,1.8-.4,2.5-1.1l1.1,1.1c-.4.5-1,.9-1.6,1.1-.6.3-1.3.4-2.1.4h0Z"/>
    <path class="st6" d="M397.8,161.4c-.7,0-1.4-.2-2-.5s-1-.7-1.4-1.3c-.3-.6-.5-1.2-.5-1.9s.2-1.3.5-1.9c.3-.6.8-1,1.4-1.3s1.2-.5,2-.5,1.4.2,2,.5,1,.7,1.4,1.3c.3.6.5,1.2.5,1.9s-.2,1.3-.5,1.9c-.3.6-.8,1-1.4,1.3s-1.2.5-2,.5ZM397.8,160c.6,0,1.1-.2,1.5-.6.4-.4.6-1,.6-1.6s-.2-1.2-.6-1.6c-.4-.4-.9-.6-1.5-.6s-1.1.2-1.5.6c-.4.4-.6.9-.6,1.6s.2,1.2.6,1.6c.4.4.9.6,1.5.6Z"/>
    <path class="st6" d="M412.2,154.1c.9,0,1.6.3,2.1.8s.8,1.3.8,2.3v4.1h-1.7v-3.9c0-.6-.1-1.1-.4-1.4-.3-.3-.7-.5-1.2-.5s-1,.2-1.4.6c-.3.4-.5.9-.5,1.6v3.6h-1.7v-3.9c0-.6-.1-1.1-.4-1.4-.3-.3-.7-.5-1.2-.5s-1,.2-1.4.6c-.3.4-.5.9-.5,1.6v3.6h-1.7v-7.1h1.6v.9c.3-.3.6-.6,1-.7.4-.2.9-.3,1.4-.3s1,.1,1.4.3.7.5,1,.9c.3-.4.7-.7,1.1-.9.5-.2,1-.3,1.5-.3h.2Z"/>
    <path class="st6" d="M424,157.8v.5h-5.6c0,.5.4.9.8,1.3.4.3.9.5,1.5.5s1.4-.3,1.9-.8l.9,1c-.3.4-.7.7-1.2.9s-1,.3-1.6.3-1.5-.2-2.1-.5-1.1-.7-1.4-1.3-.5-1.2-.5-1.9.2-1.3.5-1.9c.3-.6.8-1,1.3-1.3.6-.3,1.2-.5,1.9-.5s1.3.2,1.9.5,1,.7,1.3,1.3.5,1.2.5,1.9h0ZM420.4,155.5c-.5,0-1,.2-1.4.5s-.6.7-.7,1.3h4c0-.5-.3-.9-.7-1.3-.4-.3-.8-.5-1.4-.5h.2ZM421.1,151.4h2l-2.3,1.8h-1.4l1.8-1.8h-.1Z"/>
    <path class="st6" d="M427.2,155.2c.5-.8,1.3-1.1,2.5-1.1v1.6h-.4c-.7,0-1.2.2-1.5.6-.4.4-.5.9-.5,1.6v3.5h-1.7v-7.1h1.6v1h0Z"/>
    <path class="st6" d="M434.3,161.4c-.7,0-1.4-.2-2-.5s-1-.7-1.4-1.3c-.3-.6-.5-1.2-.5-1.9s.2-1.3.5-1.9c.3-.6.8-1,1.4-1.3s1.2-.5,2-.5,1.3.1,1.9.4c.5.3.9.7,1.2,1.2l-1.3.8c-.2-.3-.5-.6-.8-.8s-.6-.3-1-.3c-.6,0-1.1.2-1.6.6-.4.4-.6.9-.6,1.6s.2,1.2.6,1.6c.4.4.9.6,1.6.6s.7,0,1-.3c.3-.2.6-.4.8-.7l1.3.7c-.3.5-.7,1-1.2,1.3s-1.1.4-1.8.4v.3h-.1Z"/>
    <path class="st6" d="M438.8,154.2h1.7v7.1h-1.7v-7.1ZM439.7,153c-.3,0-.6,0-.8-.3-.2-.2-.3-.4-.3-.7s0-.5.3-.7c.2-.2.5-.3.8-.3s.6,0,.8.3c.2.2.3.4.3.7s-.1.5-.3.8c-.2.2-.4.3-.8.3h0Z"/>
    <path class="st6" d="M445.9,161.4c-.7,0-1.4-.2-2-.5s-1-.7-1.4-1.3c-.3-.6-.5-1.2-.5-1.9s.2-1.3.5-1.9c.3-.6.8-1,1.4-1.3s1.2-.5,2-.5,1.4.2,2,.5,1,.7,1.4,1.3c.3.6.5,1.2.5,1.9s-.2,1.3-.5,1.9c-.3.6-.8,1-1.4,1.3s-1.2.5-2,.5ZM445.9,160c.6,0,1.1-.2,1.5-.6.4-.4.6-1,.6-1.6s-.2-1.2-.6-1.6c-.4-.4-.9-.6-1.5-.6s-1.1.2-1.5.6c-.4.4-.6.9-.6,1.6s.2,1.2.6,1.6c.4.4.9.6,1.5.6Z"/>
    <path class="st6" d="M450.2,161.3"/>
    <path class="st6" d="M462.1,159.9v1.5h-7v-9.3h6.8v1.5h-5.1v2.4h4.5v1.4h-4.5v2.6h5.3Z"/>
    <path class="st6" d="M468.3,161.3l-1.8-2.5-1.8,2.5h-1.8l2.8-3.6-2.6-3.5h1.8l1.8,2.3,1.8-2.3h1.8l-2.7,3.5,2.8,3.6h-2.1,0Z"/>
    <path class="st6" d="M475.7,160.9c-.2.2-.4.3-.7.4-.3,0-.6.1-.9.1-.8,0-1.4-.2-1.8-.6-.4-.4-.6-1-.6-1.8v-3.4h-1.2v-1.3h1.2v-1.6h1.7v1.6h1.9v1.3h-1.9v3.4c0,.3,0,.6.3.8.2.2.4.3.8.3s.7-.1.9-.3l.5,1.2h-.2,0Z"/>
    <path class="st6" d="M483.5,157.8v.5h-5.6c0,.5.4.9.8,1.3.4.3.9.5,1.5.5s1.4-.3,1.9-.8l.9,1c-.3.4-.7.7-1.2.9s-1,.3-1.6.3-1.5-.2-2.1-.5-1.1-.7-1.4-1.3-.5-1.2-.5-1.9.2-1.3.5-1.9c.3-.6.8-1,1.3-1.3.6-.3,1.2-.5,1.9-.5s1.3.2,1.9.5,1,.7,1.3,1.3.5,1.2.5,1.9h0ZM479.9,155.5c-.5,0-1,.2-1.4.5s-.6.7-.7,1.3h4c0-.5-.3-.9-.7-1.3-.4-.3-.8-.5-1.4-.5h.2Z"/>
    <path class="st6" d="M486.7,155.2c.5-.8,1.3-1.1,2.5-1.1v1.6h-.4c-.7,0-1.2.2-1.5.6-.4.4-.5.9-.5,1.6v3.5h-1.7v-7.1h1.6v1h0Z"/>
    <path class="st6" d="M490.6,154.2h1.7v7.1h-1.7v-7.1ZM491.5,153c-.3,0-.6,0-.8-.3-.2-.2-.3-.4-.3-.7s0-.5.3-.7c.2-.2.5-.3.8-.3s.6,0,.8.3c.2.2.3.4.3.7s-.1.5-.3.8c-.2.2-.4.3-.8.3h0Z"/>
    <path class="st6" d="M497.7,161.4c-.7,0-1.4-.2-2-.5s-1-.7-1.4-1.3c-.3-.6-.5-1.2-.5-1.9s.2-1.3.5-1.9c.3-.6.8-1,1.4-1.3s1.2-.5,2-.5,1.4.2,2,.5,1,.7,1.4,1.3c.3.6.5,1.2.5,1.9s-.2,1.3-.5,1.9c-.3.6-.8,1-1.4,1.3s-1.2.5-2,.5ZM497.7,160c.6,0,1.1-.2,1.5-.6.4-.4.6-1,.6-1.6s-.2-1.2-.6-1.6c-.4-.4-.9-.6-1.5-.6s-1.1.2-1.5.6c-.4.4-.6.9-.6,1.6s.2,1.2.6,1.6c.4.4.9.6,1.5.6Z"/>
    <path class="st6" d="M504.7,155.2c.5-.8,1.3-1.1,2.5-1.1v1.6h-.4c-.7,0-1.2.2-1.5.6-.4.4-.5.9-.5,1.6v3.5h-1.7v-7.1h1.6v1h0Z"/>
    <path class="st6" d="M346.4,141.9v1.5h-7v-9.3h6.8v1.5h-5.1v2.4h4.5v1.4h-4.5v2.6h5.3Z"/>
  </g>
  <g id="OBJECTS">
    <g>
      <path class="st3" d="M83.8,45.5c-7.3,1.9-7.7,8.2-7.7,14.5v50c0,1.8,0,3.8-1.5,5-1.9,1.6-5.7.9-8,.9s-5.6.3-8.4-.5c-4.8-1.4-8.2-6.4-6.8-11.4.3-1,.8-2,1.4-2.8,1.4-1.9,3.4-3.5,5.8-4,5.3-1.2,10.9.6,14.2-5.1,3.3-5.7,0-13.1-6.2-14.6-7.4-1.8-16.3.5-22.4,4.9-15.4,11.2-16.5,35.4-1.1,47.2,9.5,7.2,20.6,6.3,31.8,6.3s9.7.7,14-.7c8.6-2.9,6.6-12.8,6.6-19.9v-40.9c0-6.8.7-13.9,0-20.6-.6-5.7-6.2-9.6-11.8-8.2h0ZM221.3,71.4c-8,2.1-5.3,17.1,3.1,14.9,8.3-2.2,5.8-17.2-3.1-14.9ZM187.7,83.6c-2.9.4-5.6.6-8.4,1.8-7.4,3-12.9,9.3-14.9,17-.9,3.6-.9,7.2-.9,10.8v4.5c0,6-1.4,15.9,7,16.8,1,.1,2.1,0,3.1,0,4.9-.8,6.9-5.3,7-9.7.1-4.5,0-9.1,0-13.6s0-7.1,3.2-9.6c4-3.2,9.4-2.1,12,2.3,1.4,2.4,1,5.2,2.1,7.7,2,4.4,7.4,6.4,11.8,4.2,6.1-3.1,4.9-10.8,2.9-16.1-3.7-9.4-14.4-17.3-24.9-15.9h0v-.2ZM221.7,89.2c-2.7.6-4.1,2.9-4.9,5.4-1.2,4.2-.4,9.6-.4,14v16.1c0,3.3.7,7,3.9,8.9,2.8,1.6,6.7.9,9.8.9s4.9.4,7-.2c6.2-1.8,7.4-11.8,1.4-14.6-2.4-1.2-7.3.7-8.5-2.3-.7-1.8-.2-4.4-.2-6.3,0-5.1.7-10.8-.2-15.7-.7-3.6-3.8-7-7.8-6.1h-.1ZM109.7,90.3c-4.3.2-8.3,3-9.5,7.1-.6,2.1-.3,4.5-.3,6.6v11.9c0,5-.2,9.9,1.4,14.7,4.6,13.4,17.3,20.9,31.1,20.3,12.7-.6,23.8-10.2,27-22.4,1.4-5.4,1-11.2,1-16.8s1.8-16.7-5.2-20.3c-5.9-3-13.7.4-14.9,7-.6,3-.3,5.7-.1,8.7.1,3.3,0,6.5,0,9.8s.2,4.3-.3,6.3c-1.2,4.9-6.2,8.5-11.2,7.7-4.1-.7-7.5-4.3-8.2-8.4-1.3-7,.5-14.6-.2-21.7-.5-5.7-4.1-10.9-10.4-10.6h-.2Z"/>
      <path class="st18" d="M191.6,91.5c10.7-2.1,16.3.9,16.3.9,0,0-7.2-8.6-17.5-8.6s-10.5,1-15.4,4.2c-4.9,3.3-5.3,4.5-8.4,9.6-4.7,7.9-2.3,31.5-2.3,31.5,0,0,1.1,5.2,7.3,5.2s8.6-7.2,8.6-7.2l.5-12.2s-.5-11.5.9-15,3.8-7.2,10-8.4h0Z"/>
      <path class="st18" d="M242.1,125.9c-.2-2.8-2.3-5.8-4.4-6.3,0,0-2.8,0-5.6-.3-1.1,0-2.4-1.6-2.4-1.6,0,0,.7,1.2.7,3.7s-3.1,10.5,0,12.1,7,1.2,8.9-.5,3-4,2.8-7h0Z"/>
      <path class="st18" d="M145,136.6c-5.8.6-14.5-5.2-14.5-5.2,0,0,9.1-1.4,9.8-9.4.7-8-.3-20.8,0-22.7.3-1.9,3-9.1,10.3-8.6s7.6,4.2,7.9,4.5c3.4,4.9,1.2,19.4,1.6,28.5.3,9.1-8.1,12.2-15,12.9h-.1Z"/>
      <path class="st18" d="M45,111.1c1.7-5.2,7.2-9.4,7.2-9.4,0,0-2.5,4.9-.2,8.9.5.9,1.1,2.3,2.3,3,6.1,3.7,7.9,2.7,12.6,2.8,4.1,0,7.5-.2,8.6-1.6s4.2,13-1.6,17.5c-4.3,3.4-8.7,3.2-14.2,2.4-4.9-.7-10.8-3.2-14-7-4.4-5.2-2.5-11.4-.7-16.6h0Z"/>
      <path class="st6" d="M237.6,138.6c1.4-.9,4.4-.5,4.4-.5v1.7s-4.7-.7-4.7,2.6-.5,7.7,1.1,7.9c2.6.3,1.7,0,1.9-2.8v-2.5h-1.4v-1.4h3.1v3.9c0,1.6.2,3.3-.3,3.8-1.2,1.2-4.4,1.1-5.2-.5-.8-1-.7-6.1-.7-7.3.2-2.4,0-3.3,1.9-4.9h-.1ZM202.5,138.1s4.2-.3,5.1.9c1.8,2.3,1.6,5.9,1.6,5.9,0,0,.2,4.4-1.9,6.2-1.3,1.1-3.2.9-4.8.9v-14h0ZM172.4,138.1v1.4h-2.8v12.6h-1.7v-12.6h-2.8v-1.4h7.3ZM177.6,138.1h2.8c2.8.3,3.5,3.1,3,5.6-.2.9-1.3,2.8-1.3,2.8l2.3,5.6h-1.7l-2.3-5.6h-1.1v5.6h-1.7v-14h0ZM193.7,138.1s2.6,9.3,3.5,14h-1.7l-.7-3.5h-3.4l-1,3.5h-1.6l3.7-14h1.2ZM216.5,138.1v14h-1.7v-14h1.7ZM224.2,138.1l1.2,3.1s1.6,4.7,2.6,7v-10.1h1.7v14h-1.7s-2.8-8.1-3.8-10.5v10.4h-1.7v-14h1.7ZM204.2,150.3c3.2-.2,3.1-3.5,3.1-5.9s-.3-3-1.1-4c-.5-.7-1.3-.8-2.1-.9v10.8h.1ZM193.2,140.7s-1.2,4.3-1.6,6.1h3c-.5-1.8-1.4-6.1-1.4-6.1ZM179.4,144.7c3.3-.3,3.3-5,0-5.2v5.2Z"/>
    </g>
  </g>
</svg>