<?xml version="1.0" encoding="UTF-8"?>
<svg id="Camada_1" xmlns="http://www.w3.org/2000/svg" version="1.1" xmlns:xlink="http://www.w3.org/1999/xlink" viewBox="0 0 600 100">
  <!-- Generator: Adobe Illustrator 29.5.1, SVG Export Plug-In . SVG Version: 2.1.0 Build 141)  -->
  <defs>
    <style>
      .st0 {
        fill-opacity: .5;
      }

      .st1 {
        clip-path: url(#clippath-6);
      }

      .st2 {
        clip-path: url(#clippath-7);
      }

      .st3 {
        mask: url(#mask-5);
      }

      .st4 {
        fill-opacity: 0;
      }

      .st4, .st5, .st6, .st7, .st8, .st9, .st10, .st11, .st12 {
        fill: #6b6b6b;
      }

      .st5 {
        fill-opacity: 0;
      }

      .st13 {
        clip-path: url(#clippath-4);
      }

      .st14 {
        mask: url(#mask-1);
      }

      .st6 {
        fill-opacity: 0;
      }

      .st15 {
        mask: url(#mask-6);
      }

      .st16 {
        clip-path: url(#clippath-9);
      }

      .st17 {
        mask: url(#mask-7);
      }

      .st18 {
        fill: #d60f19;
      }

      .st19 {
        clip-path: url(#clippath-10);
      }

      .st7 {
        fill-opacity: 0;
      }

      .st20 {
        fill: #fff;
      }

      .st21 {
        mask: url(#mask);
      }

      .st22 {
        fill-opacity: .7;
      }

      .st23 {
        clip-path: url(#clippath-11);
      }

      .st24 {
        fill: none;
      }

      .st25 {
        fill: #010817;
      }

      .st26 {
        mask: url(#mask-8);
      }

      .st8 {
        fill-opacity: 0;
      }

      .st27 {
        mask: url(#mask-2);
      }

      .st28 {
        clip-path: url(#clippath-1);
      }

      .st29 {
        fill: url(#_4572cf7270);
      }

      .st30 {
        isolation: isolate;
      }

      .st31 {
        clip-path: url(#clippath-5);
      }

      .st32 {
        clip-path: url(#clippath-8);
      }

      .st33 {
        fill: url(#Gradiente_sem_nome_1331);
      }

      .st34 {
        fill: url(#Gradiente_sem_nome_133);
      }

      .st35 {
        clip-path: url(#clippath-3);
      }

      .st9 {
        fill-opacity: 0;
      }

      .st10 {
        fill-opacity: 0;
      }

      .st36 {
        clip-path: url(#clippath-12);
      }

      .st11 {
        fill-opacity: 0;
      }

      .st37 {
        fill: url(#f50962ce8d);
      }

      .st38 {
        fill-opacity: .6;
      }

      .st39 {
        fill: #f5f5f4;
      }

      .st40 {
        clip-path: url(#clippath-2);
      }

      .st41 {
        mask: url(#mask-4);
      }

      .st42 {
        clip-path: url(#clippath);
      }

      .st43 {
        mask: url(#mask-3);
      }

      .st12 {
        fill-opacity: 0;
      }
    </style>
    <linearGradient id="Gradiente_sem_nome_133" data-name="Gradiente sem nome 133" x1="0" y1="50" x2="290.4" y2="50" gradientUnits="userSpaceOnUse">
      <stop offset="0" stop-color="#87151a" stop-opacity=".8"/>
      <stop offset="0" stop-color="#87151a" stop-opacity=".7"/>
      <stop offset=".2" stop-color="#87151a" stop-opacity=".6"/>
      <stop offset=".3" stop-color="#87151a" stop-opacity=".6"/>
      <stop offset=".4" stop-color="#87151a" stop-opacity=".4"/>
      <stop offset=".6" stop-color="#87151a" stop-opacity=".3"/>
      <stop offset=".8" stop-color="#87151a" stop-opacity=".2"/>
      <stop offset="1" stop-color="#87151a" stop-opacity="0"/>
    </linearGradient>
    <mask id="mask" x="-96" y="-197" width="696" height="384" maskUnits="userSpaceOnUse">
      <g id="c209a9cc87">
        <rect class="st38" y="0" width="600" height="100"/>
      </g>
    </mask>
    <clipPath id="clippath">
      <rect class="st24" y="0" width="289.3" height="100"/>
    </clipPath>
    <clipPath id="clippath-1">
      <rect class="st24" y="0" width="288" height="100"/>
    </clipPath>
    <clipPath id="clippath-2">
      <path class="st24" d="M96,187c-3.1,0-6.3,0-9.4-.2-3.1-.2-6.3-.4-9.4-.7-3.1-.3-6.2-.7-9.4-1.2-3.1-.5-6.2-1-9.3-1.6-3.1-.6-6.1-1.3-9.2-2.1-3-.8-6.1-1.6-9.1-2.5-3-.9-6-1.9-8.9-3-3-1.1-5.9-2.2-8.8-3.4-2.9-1.2-5.8-2.5-8.6-3.8-2.8-1.3-5.6-2.8-8.4-4.2-2.8-1.5-5.5-3-8.2-4.6-2.7-1.6-5.3-3.3-8-5-2.6-1.7-5.2-3.6-7.7-5.4-2.5-1.9-5-3.8-7.4-5.8-2.4-2-4.8-4-7.1-6.2s-4.6-4.3-6.8-6.5c-2.2-2.2-4.4-4.5-6.5-6.8s-4.2-4.7-6.2-7.1c-2-2.4-3.9-4.9-5.8-7.4-1.9-2.5-3.7-5.1-5.4-7.7-1.7-2.6-3.4-5.3-5-8-1.6-2.7-3.2-5.4-4.6-8.2-1.5-2.8-2.9-5.6-4.2-8.4-1.3-2.8-2.6-5.7-3.8-8.6-1.2-2.9-2.3-5.8-3.4-8.8-1.1-3-2-5.9-3-8.9-.9-3-1.8-6-2.5-9.1-.8-3-1.4-6.1-2.1-9.2-.6-3.1-1.2-6.2-1.6-9.3-.5-3.1-.8-6.2-1.2-9.4s-.5-6.3-.7-9.4c-.2-3.1-.2-6.3-.2-9.4s0-6.3.2-9.4c.2-3.1.4-6.3.7-9.4.3-3.1.7-6.2,1.2-9.3.5-3.1,1-6.2,1.6-9.3.6-3.1,1.3-6.1,2.1-9.2.8-3,1.6-6.1,2.5-9.1.9-3,1.9-6,3-9,1.1-3,2.2-5.9,3.4-8.8,1.2-2.9,2.5-5.8,3.8-8.6,1.3-2.8,2.8-5.6,4.2-8.4,1.5-2.8,3-5.5,4.6-8.2,1.6-2.7,3.3-5.3,5-8s3.6-5.2,5.4-7.7c1.9-2.5,3.8-5,5.8-7.4,2-2.4,4-4.8,6.2-7.1s4.3-4.6,6.5-6.8c2.2-2.2,4.5-4.4,6.8-6.5s4.7-4.2,7.1-6.2c2.4-2,4.9-3.9,7.4-5.8,2.5-1.9,5.1-3.7,7.7-5.4,2.6-1.7,5.3-3.4,8-5,2.7-1.6,5.4-3.2,8.2-4.6,2.8-1.5,5.6-2.9,8.4-4.2,2.8-1.3,5.7-2.6,8.6-3.8,2.9-1.2,5.8-2.3,8.8-3.4,3-1.1,5.9-2,8.9-3,3-.9,6-1.8,9.1-2.5,3.1-.8,6.1-1.4,9.2-2.1,3.1-.6,6.2-1.2,9.3-1.6,3.1-.5,6.2-.8,9.4-1.2,3.1-.3,6.3-.5,9.4-.7,3.1-.2,6.3-.2,9.4-.2s6.3,0,9.4.2c3.1.2,6.3.4,9.4.7,3.1.3,6.2.7,9.4,1.2,3.1.5,6.2,1,9.3,1.6,3.1.6,6.2,1.3,9.2,2.1,3,.8,6.1,1.6,9.1,2.5,3,.9,6,1.9,8.9,3,3,1.1,5.9,2.2,8.8,3.4,2.9,1.2,5.8,2.5,8.6,3.8,2.8,1.3,5.6,2.8,8.4,4.2,2.8,1.5,5.5,3,8.2,4.6,2.7,1.6,5.3,3.3,8,5,2.6,1.7,5.2,3.6,7.7,5.4,2.5,1.9,5,3.8,7.4,5.8,2.4,2,4.8,4,7.1,6.2s4.6,4.3,6.8,6.5c2.2,2.2,4.4,4.5,6.5,6.8s4.2,4.7,6.2,7.1c2,2.4,3.9,4.9,5.8,7.4,1.9,2.5,3.7,5.1,5.4,7.7s3.4,5.3,5,8c1.6,2.7,3.2,5.4,4.6,8.2,1.5,2.8,2.9,5.6,4.2,8.4,1.3,2.8,2.6,5.7,3.8,8.6,1.2,2.9,2.3,5.8,3.4,8.8,1.1,3,2,5.9,3,9,.9,3,1.8,6,2.5,9.1.8,3.1,1.5,6.1,2.1,9.2.6,3.1,1.2,6.2,1.6,9.3.5,3.1.8,6.2,1.2,9.3.3,3.1.5,6.3.7,9.4.2,3.1.2,6.3.2,9.4s0,6.3-.2,9.4c-.2,3.1-.4,6.3-.7,9.4s-.7,6.2-1.2,9.4c-.5,3.1-1,6.2-1.6,9.3-.6,3.1-1.3,6.2-2.1,9.2-.8,3-1.6,6.1-2.5,9.1-.9,3-1.9,6-3,8.9-1.1,3-2.2,5.9-3.4,8.8-1.2,2.9-2.5,5.8-3.8,8.6-1.3,2.8-2.8,5.6-4.2,8.4-1.5,2.8-3,5.5-4.6,8.2-1.6,2.7-3.3,5.4-5,8-1.7,2.6-3.6,5.2-5.4,7.7-1.9,2.5-3.8,5-5.8,7.4-2,2.4-4,4.8-6.2,7.1s-4.3,4.6-6.5,6.8c-2.2,2.2-4.5,4.4-6.8,6.5s-4.7,4.2-7.1,6.2c-2.4,2-4.9,3.9-7.4,5.8-2.5,1.9-5.1,3.7-7.7,5.4-2.6,1.7-5.3,3.4-8,5-2.7,1.6-5.4,3.2-8.2,4.6-2.8,1.5-5.6,2.9-8.4,4.2-2.8,1.3-5.7,2.6-8.6,3.8-2.9,1.2-5.8,2.3-8.8,3.4-3,1.1-5.9,2-8.9,3-3,.9-6,1.8-9.1,2.5-3,.8-6.1,1.5-9.2,2.1-3.1.6-6.2,1.2-9.3,1.6-3.1.5-6.2.8-9.4,1.2-3.1.3-6.3.5-9.4.7-3.1.2-6.3.2-9.4.2Z"/>
    </clipPath>
    <clipPath id="clippath-3">
      <rect class="st24" y="0" width="289.3" height="101.3"/>
    </clipPath>
    <mask id="mask-1" x="0" y="-101.5" width="289.3" height="182.4" maskUnits="userSpaceOnUse">
      <g id="_x30_09176a4b3">
        <image class="st30" width="217" height="76" transform="translate(124.6 -80.9) rotate(90) scale(.8 -.8)" xlink:href="Header Op1-1.png"/>
      </g>
    </mask>
    <pattern id="_4572cf7270" data-name="4572cf7270" x="0" y="0" width="289.3" height="101.3" patternTransform="translate(2931.1 -10435.9) scale(1.3 -1.3)" patternUnits="userSpaceOnUse" viewBox="0 0 289.3 101.3">
      <g>
        <rect class="st24" width="289.3" height="101.3"/>
        <g class="st35">
          <g class="st14">
            <rect class="st18" width="289.3" height="101.3"/>
          </g>
        </g>
      </g>
    </pattern>
    <mask id="mask-2" x="0" y="-85.8" width="600" height="190" maskUnits="userSpaceOnUse">
      <g id="_x35_a4905e79a">
        <rect class="st22" y="0" width="600" height="100"/>
      </g>
    </mask>
    <clipPath id="clippath-4">
      <rect class="st24" y="0" width="204" height="100"/>
    </clipPath>
    <clipPath id="clippath-5">
      <rect class="st24" x=".2" y="0" width="202.5" height="100"/>
    </clipPath>
    <mask id="mask-3" x=".2" y="-85.8" width="203" height="190" maskUnits="userSpaceOnUse">
      <g id="_x39_fce516785">
        <image id="e1bd80e191" class="st30" width="724" height="676" transform="translate(203.2 104.2) rotate(-180) scale(.3)" xlink:href="Header Op1-2.png"/>
      </g>
    </mask>
    <mask id="mask-4" x="0" y="-133" width="1002.7" height="300" maskUnits="userSpaceOnUse">
      <g id="_x36_c5a62862c">
        <rect class="st0" x="402.7" y="0" width="600" height="100"/>
      </g>
    </mask>
    <clipPath id="clippath-6">
      <rect class="st24" x="402.7" y="0" width="197.3" height="100"/>
    </clipPath>
    <clipPath id="clippath-7">
      <rect class="st24" x="403.6" y="0" width="196.4" height="100"/>
    </clipPath>
    <clipPath id="clippath-8">
      <path class="st24" d="M553.6-133c2.5,0,4.9,0,7.4.2,2.4.1,4.9.3,7.3.5,2.4.2,4.9.5,7.3.9,2.4.4,4.8.8,7.3,1.3,2.4.5,4.8,1,7.2,1.6,2.4.6,4.8,1.2,7.1,2,2.3.7,4.7,1.5,7,2.3s4.6,1.7,6.9,2.7c2.3.9,4.5,1.9,6.7,3,2.2,1,4.4,2.2,6.6,3.3,2.2,1.2,4.3,2.4,6.4,3.6,2.1,1.3,4.2,2.6,6.2,3.9,2,1.4,4,2.8,6,4.2,2,1.5,3.9,3,5.8,4.5,1.9,1.6,3.8,3.2,5.6,4.8,1.8,1.7,3.6,3.3,5.3,5.1s3.4,3.5,5.1,5.3c1.6,1.8,3.2,3.7,4.8,5.6,1.6,1.9,3.1,3.8,4.5,5.8,1.5,2,2.9,4,4.2,6,1.4,2,2.7,4.1,3.9,6.2,1.3,2.1,2.5,4.2,3.6,6.4,1.2,2.2,2.3,4.4,3.3,6.6,1.1,2.2,2,4.5,3,6.7.9,2.3,1.8,4.6,2.7,6.9s1.6,4.6,2.3,7c.7,2.3,1.4,4.7,2,7.1.6,2.4,1.1,4.8,1.6,7.2.5,2.4.9,4.8,1.3,7.3.4,2.4.7,4.9.9,7.3.2,2.4.4,4.9.5,7.3.1,2.5.2,4.9.2,7.4s0,4.9-.2,7.4c-.1,2.4-.3,4.9-.5,7.3-.2,2.4-.5,4.9-.9,7.3-.4,2.4-.8,4.8-1.3,7.3-.5,2.4-1,4.8-1.6,7.2-.6,2.4-1.2,4.8-2,7.1-.7,2.3-1.5,4.7-2.3,7s-1.7,4.6-2.7,6.9c-.9,2.3-1.9,4.5-3,6.7-1,2.2-2.2,4.4-3.3,6.6-1.2,2.2-2.4,4.3-3.6,6.4-1.3,2.1-2.6,4.2-3.9,6.2-1.4,2-2.8,4-4.2,6-1.5,2-3,3.9-4.5,5.8-1.6,1.9-3.2,3.8-4.8,5.6-1.7,1.8-3.3,3.6-5.1,5.3s-3.5,3.4-5.3,5.1c-1.8,1.6-3.7,3.2-5.6,4.8s-3.8,3.1-5.8,4.5c-2,1.5-4,2.9-6,4.2-2,1.4-4.1,2.7-6.2,3.9-2.1,1.3-4.2,2.5-6.4,3.6-2.2,1.2-4.4,2.3-6.6,3.3-2.2,1.1-4.5,2-6.7,3-2.3.9-4.6,1.8-6.9,2.7s-4.6,1.6-7,2.3c-2.3.7-4.7,1.4-7.1,2-2.4.6-4.8,1.1-7.2,1.6-2.4.5-4.8.9-7.3,1.3-2.4.4-4.9.7-7.3.9-2.4.2-4.9.4-7.3.5-2.5.1-4.9.2-7.4.2s-4.9,0-7.4-.2c-2.5-.1-4.9-.3-7.3-.5-2.4-.2-4.9-.5-7.3-.9-2.4-.4-4.8-.8-7.3-1.3-2.4-.5-4.8-1-7.2-1.6-2.4-.6-4.8-1.2-7.1-2-2.3-.7-4.7-1.5-7-2.3s-4.6-1.7-6.9-2.7c-2.3-.9-4.5-1.9-6.7-3-2.2-1-4.4-2.2-6.6-3.3-2.2-1.2-4.3-2.4-6.4-3.6-2.1-1.3-4.2-2.6-6.2-3.9-2-1.4-4-2.8-6-4.2-2-1.5-3.9-3-5.8-4.5-1.9-1.6-3.8-3.2-5.6-4.8-1.8-1.7-3.6-3.3-5.3-5.1-1.7-1.7-3.4-3.5-5.1-5.3-1.7-1.8-3.2-3.7-4.8-5.6-1.6-1.9-3.1-3.8-4.5-5.8-1.5-2-2.9-4-4.2-6-1.4-2-2.7-4.1-3.9-6.2-1.3-2.1-2.5-4.2-3.6-6.4-1.2-2.2-2.3-4.4-3.3-6.6-1.1-2.2-2-4.5-3-6.7-.9-2.3-1.8-4.6-2.7-6.9s-1.6-4.6-2.3-7c-.7-2.3-1.4-4.7-2-7.1-.6-2.4-1.1-4.8-1.6-7.2-.5-2.4-.9-4.8-1.3-7.3-.4-2.4-.7-4.9-.9-7.3s-.4-4.9-.5-7.3c-.1-2.5-.2-4.9-.2-7.4s0-4.9.2-7.4c.1-2.4.3-4.9.5-7.3.2-2.4.5-4.9.9-7.3.4-2.4.8-4.8,1.3-7.3.5-2.4,1-4.8,1.6-7.2.6-2.4,1.2-4.8,2-7.1.7-2.3,1.5-4.7,2.3-7s1.7-4.6,2.7-6.9c.9-2.3,1.9-4.5,3-6.7,1-2.2,2.2-4.4,3.3-6.6,1.2-2.2,2.4-4.3,3.6-6.4,1.3-2.1,2.6-4.2,3.9-6.2,1.4-2,2.8-4,4.2-6,1.5-2,3-3.9,4.5-5.8s3.2-3.8,4.8-5.6c1.7-1.8,3.3-3.6,5.1-5.3,1.7-1.7,3.5-3.4,5.3-5.1,1.8-1.6,3.7-3.2,5.6-4.8,1.9-1.6,3.8-3.1,5.8-4.5,2-1.5,4-2.9,6-4.2s4.1-2.7,6.2-3.9c2.1-1.3,4.2-2.5,6.4-3.6,2.2-1.2,4.4-2.3,6.6-3.3,2.2-1.1,4.5-2,6.7-3,2.3-.9,4.6-1.8,6.9-2.7s4.6-1.6,7-2.3c2.3-.7,4.7-1.4,7.1-2,2.4-.6,4.8-1.1,7.2-1.6,2.4-.5,4.8-.9,7.3-1.3,2.4-.4,4.9-.7,7.3-.9,2.4-.2,4.9-.4,7.3-.5,2.5-.1,4.9-.2,7.4-.2Z"/>
    </clipPath>
    <clipPath id="clippath-9">
      <rect class="st24" y="0" width="197.3" height="101.3"/>
    </clipPath>
    <mask id="mask-5" x="0" y="-101.4" width="197.3" height="160.2" maskUnits="userSpaceOnUse">
      <g id="ab79c608ab">
        <image class="st30" width="149" height="76" transform="translate(135.2 101.4) rotate(-90) scale(1.1 -1.1)" xlink:href="Header Op1-4.png"/>
      </g>
    </mask>
    <pattern id="f50962ce8d" x="0" y="0" width="197.3" height="101.3" patternTransform="translate(2995.7 -10435.9) scale(1.3 -1.3)" patternUnits="userSpaceOnUse" viewBox="0 0 197.3 101.3">
      <g>
        <rect class="st24" width="197.3" height="101.3"/>
        <g class="st16">
          <g class="st3">
            <rect class="st18" width="197.3" height="101.3"/>
          </g>
        </g>
      </g>
    </pattern>
    <mask id="mask-6" x="396" y="-89.7" width="600" height="190" maskUnits="userSpaceOnUse">
      <g id="_x33_0bb6ef48f">
        <rect class="st22" x="396" y="0" width="600" height="100"/>
      </g>
    </mask>
    <clipPath id="clippath-10">
      <rect class="st24" x="396" y="0" width="204" height="100"/>
    </clipPath>
    <clipPath id="clippath-11">
      <rect class="st24" x="397.3" y="0" width="202.5" height="100"/>
    </clipPath>
    <mask id="mask-7" x="396.8" y="-89.7" width="203" height="190" maskUnits="userSpaceOnUse">
      <g id="_x38_869296e5a">
        <image id="_x38_3077cd2c5" class="st30" width="724" height="676" transform="translate(396.8 -89.7) scale(.3)" xlink:href="Header Op1-5.png"/>
      </g>
    </mask>
    <linearGradient id="Gradiente_sem_nome_1331" data-name="Gradiente sem nome 133" x1="421.1" y1="50" x2="705.1" y2="50" gradientTransform="translate(-105.1)" xlink:href="#Gradiente_sem_nome_133"/>
    <clipPath id="clippath-12">
      <rect class="st24" x="474.7" y="24.3" width="100" height="50.4"/>
    </clipPath>
    <mask id="mask-8" x="474.1" y="24.3" width="101" height="51" maskUnits="userSpaceOnUse">
      <g id="f0e563aca0">
        <image class="st30" width="420" height="214" transform="translate(474.1 24.3) scale(.2)" xlink:href="Header Op1-7.png"/>
      </g>
    </mask>
  </defs>
  <g id="e58fc7bb5c">
    <rect class="st20" y="0" width="600" height="100"/>
    <rect class="st25" y="0" width="600" height="100"/>
    <rect class="st34" y="-.5" width="290.4" height="101"/>
    <g class="st21">
      <g class="st42">
        <g class="st28">
          <g class="st40">
            <path class="st29" d="M288,0v100H0V0h288Z"/>
          </g>
        </g>
      </g>
    </g>
    <g class="st27">
      <g class="st13">
        <g class="st31">
          <g class="st43">
            <image id="_x33_6c7d41a7a" class="st30" width="724" height="676" transform="translate(203.2 104.2) rotate(-180) scale(.3)" xlink:href="Header Op1-3.png"/>
          </g>
        </g>
      </g>
    </g>
    <g class="st41">
      <g class="st1">
        <g class="st2">
          <g class="st32">
            <path class="st37" d="M403.6,100V0h196.4v100h-196.4Z"/>
          </g>
        </g>
      </g>
    </g>
    <g>
      <path class="st39" d="M32.5,32.1v16.8h20.9v2.6h-20.9v17.3h-2.9V29.5h26.2v2.6h-23.4Z"/>
      <path class="st39" d="M74.1,68.9c-2.8,0-5.3-.6-7.5-1.9-2.2-1.3-4-3-5.2-5.3-1.3-2.3-1.9-4.8-1.9-7.7s.6-5.4,1.9-7.6c1.3-2.3,3-4,5.2-5.3,2.2-1.3,4.7-1.9,7.5-1.9s5.3.6,7.5,1.9c2.2,1.3,4,3,5.2,5.3,1.3,2.3,1.9,4.8,1.9,7.6s-.6,5.4-1.9,7.7c-1.3,2.3-3,4-5.2,5.3-2.2,1.3-4.7,1.9-7.5,1.9ZM74.1,66.4c2.3,0,4.3-.5,6-1.6,1.8-1.1,3.2-2.5,4.2-4.4,1-1.9,1.5-4,1.5-6.4s-.5-4.5-1.5-6.4c-1-1.9-2.4-3.3-4.2-4.4-1.8-1.1-3.8-1.6-6-1.6s-4.2.5-6,1.6c-1.8,1-3.2,2.5-4.2,4.4-1,1.9-1.5,4-1.5,6.4s.5,4.5,1.5,6.4c1,1.9,2.4,3.3,4.2,4.4,1.8,1,3.8,1.6,6,1.6Z"/>
      <path class="st39" d="M96,27.1h2.8v41.5h-2.8V27.1Z"/>
      <path class="st39" d="M109.2,27.1h2.8v41.5h-2.8V27.1Z"/>
      <path class="st39" d="M133.9,68.9c-2.8,0-5.3-.6-7.5-1.9-2.2-1.3-4-3-5.2-5.3-1.3-2.3-1.9-4.8-1.9-7.7s.6-5.4,1.9-7.6c1.3-2.3,3-4,5.2-5.3,2.2-1.3,4.7-1.9,7.5-1.9s5.3.6,7.5,1.9c2.2,1.3,4,3,5.2,5.3,1.3,2.3,1.9,4.8,1.9,7.6s-.6,5.4-1.9,7.7c-1.3,2.3-3,4-5.2,5.3-2.2,1.3-4.7,1.9-7.5,1.9ZM133.9,66.4c2.3,0,4.3-.5,6-1.6,1.8-1.1,3.2-2.5,4.2-4.4,1-1.9,1.5-4,1.5-6.4s-.5-4.5-1.5-6.4c-1-1.9-2.4-3.3-4.2-4.4-1.8-1.1-3.8-1.6-6-1.6s-4.2.5-6,1.6c-1.8,1-3.2,2.5-4.2,4.4-1,1.9-1.5,4-1.5,6.4s.5,4.5,1.5,6.4c1,1.9,2.4,3.3,4.2,4.4,1.8,1,3.8,1.6,6,1.6Z"/>
      <path class="st39" d="M197.5,39.5l-11.1,29.2h-2.6l-9.9-25.4-9.9,25.4h-2.6l-11.1-29.2h2.7l9.8,26.1,10-26.1h2.4l9.9,26,9.9-26h2.6Z"/>
      <path class="st39" d="M200.2,52.4h14.4v2.5h-14.4v-2.5Z"/>
      <path class="st39" d="M238.8,69c-5,0-8.8-1.4-11.6-4.3-2.7-2.9-4.1-7.1-4.1-12.6v-22.6h2.9v22.5c0,4.8,1.1,8.4,3.3,10.8,2.2,2.4,5.4,3.6,9.6,3.6s7.3-1.2,9.5-3.6c2.2-2.4,3.3-6,3.3-10.8v-22.5h2.9v22.6c0,5.5-1.4,9.7-4.1,12.6-2.8,2.9-6.6,4.3-11.6,4.3Z"/>
      <path class="st39" d="M280.3,39.2c2.7,0,5.2.6,7.4,1.9,2.2,1.3,3.9,3,5.2,5.3,1.3,2.2,1.9,4.8,1.9,7.7s-.6,5.4-1.9,7.7c-1.3,2.3-3,4-5.2,5.3s-4.7,1.9-7.4,1.9-4.9-.6-7-1.8c-2.1-1.2-3.7-2.9-4.9-5.1v17.5h-2.8v-40.1h2.7v6.9c1.2-2.2,2.8-4,4.9-5.2,2.1-1.3,4.5-1.9,7.1-1.9ZM280.1,66.4c2.2,0,4.3-.5,6-1.6,1.8-1.1,3.2-2.5,4.2-4.4,1-1.9,1.5-4,1.5-6.4s-.5-4.5-1.5-6.4c-1-1.9-2.4-3.3-4.2-4.4-1.8-1.1-3.8-1.6-6-1.6s-4.2.5-6,1.6c-1.8,1-3.2,2.5-4.2,4.4-1,1.9-1.5,4-1.5,6.4s.5,4.5,1.5,6.4c1,1.9,2.4,3.3,4.2,4.4,1.8,1,3.8,1.6,6,1.6Z"/>
    </g>
    <g class="st15">
      <g class="st19">
        <g class="st23">
          <g class="st17">
            <image id="b5408bae72" class="st30" width="724" height="676" transform="translate(396.8 -89.7) scale(.3)" xlink:href="Header Op1-6.png"/>
          </g>
        </g>
      </g>
    </g>
  </g>
  <g>
    <circle class="st9" cx="6" cy="-19.1" r="4.4"/>
    <circle class="st9" cx="6" cy="-6.3" r="4.4"/>
    <circle class="st9" cx="6" cy="57.9" r="4.4"/>
    <circle class="st9" cx="6" cy="70.7" r="4.4"/>
    <circle class="st9" cx="6" cy="32.2" r="4.4"/>
    <circle class="st9" cx="6" cy="45" r="4.4"/>
    <circle class="st9" cx="6" cy="6.5" r="4.4"/>
    <circle class="st9" cx="6" cy="19.4" r="4.4"/>
    <circle class="st8" cx="33.2" cy="-19.1" r="4.4"/>
    <circle class="st8" cx="33.2" cy="-6.3" r="4.4"/>
    <circle class="st8" cx="33.2" cy="57.9" r="4.4"/>
    <circle class="st8" cx="33.2" cy="70.7" r="4.4"/>
    <circle class="st8" cx="33.2" cy="32.2" r="4.4"/>
    <circle class="st8" cx="33.2" cy="45" r="4.4"/>
    <circle class="st8" cx="33.2" cy="6.5" r="4.4"/>
    <circle class="st8" cx="33.2" cy="19.4" r="4.4"/>
    <circle class="st8" cx="19.6" cy="-19.1" r="4.4"/>
    <circle class="st8" cx="19.6" cy="-6.3" r="4.4"/>
    <circle class="st8" cx="19.6" cy="57.9" r="4.4"/>
    <circle class="st8" cx="19.6" cy="70.7" r="4.4"/>
    <circle class="st8" cx="19.6" cy="32.2" r="4.4"/>
    <circle class="st8" cx="19.6" cy="45" r="4.4"/>
    <circle class="st8" cx="19.6" cy="6.5" r="4.4"/>
    <circle class="st8" cx="19.6" cy="19.4" r="4.4"/>
    <circle class="st10" cx="87.8" cy="-19.1" r="4.4"/>
    <circle class="st10" cx="87.8" cy="-6.3" r="4.4"/>
    <circle class="st10" cx="87.8" cy="57.9" r="4.4"/>
    <circle class="st10" cx="87.8" cy="70.7" r="4.4"/>
    <circle class="st10" cx="87.8" cy="32.2" r="4.4"/>
    <circle class="st10" cx="87.8" cy="45" r="4.4"/>
    <circle class="st10" cx="87.8" cy="6.5" r="4.4"/>
    <circle class="st10" cx="87.8" cy="19.4" r="4.4"/>
    <circle class="st6" cx="115" cy="-19.1" r="4.4"/>
    <circle class="st6" cx="115" cy="-6.3" r="4.4"/>
    <circle class="st6" cx="115" cy="57.9" r="4.4"/>
    <circle class="st6" cx="115" cy="70.7" r="4.4"/>
    <circle class="st6" cx="115" cy="32.2" r="4.4"/>
    <circle class="st6" cx="115" cy="45" r="4.4"/>
    <circle class="st6" cx="115" cy="6.5" r="4.4"/>
    <circle class="st6" cx="115" cy="19.4" r="4.4"/>
    <circle class="st5" cx="101.4" cy="-19.1" r="4.4"/>
    <circle class="st5" cx="101.4" cy="-6.3" r="4.4"/>
    <circle class="st5" cx="101.4" cy="57.9" r="4.4"/>
    <circle class="st5" cx="101.4" cy="70.7" r="4.4"/>
    <circle class="st5" cx="101.4" cy="32.2" r="4.4"/>
    <circle class="st5" cx="101.4" cy="45" r="4.4"/>
    <circle class="st5" cx="101.4" cy="6.5" r="4.4"/>
    <circle class="st5" cx="101.4" cy="19.4" r="4.4"/>
    <circle class="st7" cx="46.9" cy="-19.1" r="4.4"/>
    <circle class="st7" cx="46.9" cy="-6.3" r="4.4"/>
    <circle class="st7" cx="46.9" cy="57.9" r="4.4"/>
    <circle class="st7" cx="46.9" cy="70.7" r="4.4"/>
    <circle class="st7" cx="46.9" cy="32.2" r="4.4"/>
    <circle class="st7" cx="46.9" cy="45" r="4.4"/>
    <circle class="st7" cx="46.9" cy="6.5" r="4.4"/>
    <circle class="st7" cx="46.9" cy="19.4" r="4.4"/>
    <circle class="st10" cx="74.1" cy="-19.1" r="4.4"/>
    <circle class="st10" cx="74.1" cy="-6.3" r="4.4"/>
    <circle class="st10" cx="74.1" cy="57.9" r="4.4"/>
    <circle class="st10" cx="74.1" cy="70.7" r="4.4"/>
    <circle class="st10" cx="74.1" cy="32.2" r="4.4"/>
    <circle class="st10" cx="74.1" cy="45" r="4.4"/>
    <circle class="st10" cx="74.1" cy="6.5" r="4.4"/>
    <circle class="st10" cx="74.1" cy="19.4" r="4.4"/>
    <circle class="st4" cx="60.5" cy="-19.1" r="4.4"/>
    <circle class="st4" cx="60.5" cy="-6.3" r="4.4"/>
    <circle class="st4" cx="60.5" cy="57.9" r="4.4"/>
    <circle class="st4" cx="60.5" cy="70.7" r="4.4"/>
    <circle class="st4" cx="60.5" cy="32.2" r="4.4"/>
    <circle class="st4" cx="60.5" cy="45" r="4.4"/>
    <circle class="st4" cx="60.5" cy="6.5" r="4.4"/>
    <circle class="st4" cx="60.5" cy="19.4" r="4.4"/>
    <circle class="st12" cx="128.7" cy="-19.1" r="4.4"/>
    <circle class="st12" cx="128.7" cy="-6.3" r="4.4"/>
    <circle class="st12" cx="128.7" cy="57.9" r="4.4"/>
    <circle class="st12" cx="128.7" cy="70.7" r="4.4"/>
    <circle class="st12" cx="128.7" cy="45" r="4.4"/>
    <circle class="st12" cx="128.7" cy="6.5" r="4.4"/>
    <circle class="st12" cx="128.7" cy="19.4" r="4.4"/>
    <circle class="st12" cx="128.7" cy="31.4" r="4.4"/>
    <circle class="st11" cx="142.3" cy="-19.1" r="4.4"/>
    <circle class="st11" cx="142.3" cy="-6.3" r="4.4"/>
    <circle class="st11" cx="142.3" cy="57.9" r="4.4"/>
    <circle class="st11" cx="142.3" cy="70.7" r="4.4"/>
    <circle class="st11" cx="142.3" cy="45" r="4.4"/>
    <circle class="st11" cx="142.3" cy="6.5" r="4.4"/>
    <circle class="st11" cx="142.3" cy="19.4" r="4.4"/>
    <circle class="st11" cx="142.3" cy="31.4" r="4.4"/>
    <circle class="st9" cx="6" cy="83.5" r="4.4"/>
    <circle class="st8" cx="33.2" cy="83.5" r="4.4"/>
    <circle class="st8" cx="19.6" cy="83.5" r="4.4"/>
    <circle class="st10" cx="87.8" cy="83.5" r="4.4"/>
    <circle class="st6" cx="115" cy="83.5" r="4.4"/>
    <circle class="st5" cx="101.4" cy="83.5" r="4.4"/>
    <circle class="st7" cx="46.9" cy="83.5" r="4.4"/>
    <circle class="st10" cx="74.1" cy="83.5" r="4.4"/>
    <circle class="st4" cx="60.5" cy="83.5" r="4.4"/>
    <circle class="st12" cx="128.7" cy="83.5" r="4.4"/>
    <circle class="st11" cx="142.3" cy="83.5" r="4.4"/>
    <circle class="st9" cx="6" cy="95.5" r="4.4"/>
    <circle class="st8" cx="33.2" cy="95.5" r="4.4"/>
    <circle class="st8" cx="19.6" cy="95.5" r="4.4"/>
    <circle class="st10" cx="87.8" cy="95.5" r="4.4"/>
    <circle class="st6" cx="115" cy="95.5" r="4.4"/>
    <circle class="st5" cx="101.4" cy="95.5" r="4.4"/>
    <circle class="st7" cx="46.9" cy="95.5" r="4.4"/>
    <circle class="st10" cx="74.1" cy="95.5" r="4.4"/>
    <circle class="st4" cx="60.5" cy="95.5" r="4.4"/>
    <circle class="st12" cx="128.7" cy="95.5" r="4.4"/>
    <circle class="st11" cx="142.3" cy="95.5" r="4.4"/>
    <circle class="st9" cx="6" cy="107.6" r="4.4"/>
    <circle class="st8" cx="33.2" cy="107.6" r="4.4"/>
    <circle class="st8" cx="19.6" cy="107.6" r="4.4"/>
    <circle class="st10" cx="87.8" cy="107.6" r="4.4"/>
    <circle class="st6" cx="115" cy="107.6" r="4.4"/>
    <circle class="st5" cx="101.4" cy="107.6" r="4.4"/>
    <circle class="st7" cx="46.9" cy="107.6" r="4.4"/>
    <circle class="st10" cx="74.1" cy="107.6" r="4.4"/>
    <circle class="st4" cx="60.5" cy="107.6" r="4.4"/>
    <circle class="st12" cx="128.7" cy="107.6" r="4.4"/>
    <circle class="st11" cx="142.3" cy="107.6" r="4.4"/>
  </g>
  <rect class="st33" x="316" y="-.5" width="284" height="101" transform="translate(916 100) rotate(180)"/>
  <g>
    <circle class="st9" cx="592.8" cy="119.1" r="4.4"/>
    <circle class="st9" cx="592.8" cy="106.2" r="4.4"/>
    <circle class="st9" cx="592.8" cy="42.1" r="4.4"/>
    <circle class="st9" cx="592.8" cy="29.3" r="4.4"/>
    <circle class="st9" cx="592.8" cy="67.7" r="4.4"/>
    <circle class="st9" cx="592.8" cy="54.9" r="4.4"/>
    <circle class="st9" cx="592.8" cy="93.4" r="4.4"/>
    <circle class="st9" cx="592.8" cy="80.6" r="4.4"/>
    <circle class="st8" cx="565.6" cy="119.1" r="4.4"/>
    <circle class="st8" cx="565.6" cy="106.2" r="4.4"/>
    <circle class="st8" cx="565.6" cy="42.1" r="4.4"/>
    <circle class="st8" cx="565.6" cy="29.3" r="4.4"/>
    <circle class="st8" cx="565.6" cy="67.7" r="4.4"/>
    <circle class="st8" cx="565.6" cy="54.9" r="4.4"/>
    <circle class="st8" cx="565.6" cy="93.4" r="4.4"/>
    <circle class="st8" cx="565.6" cy="80.6" r="4.4"/>
    <circle class="st8" cx="579.2" cy="119.1" r="4.4"/>
    <circle class="st8" cx="579.2" cy="106.2" r="4.4"/>
    <circle class="st8" cx="579.2" cy="42.1" r="4.4"/>
    <circle class="st8" cx="579.2" cy="29.3" r="4.4"/>
    <circle class="st8" cx="579.2" cy="67.7" r="4.4"/>
    <circle class="st8" cx="579.2" cy="54.9" r="4.4"/>
    <circle class="st8" cx="579.2" cy="93.4" r="4.4"/>
    <circle class="st8" cx="579.2" cy="80.6" r="4.4"/>
    <circle class="st10" cx="511" cy="119.1" r="4.4"/>
    <circle class="st10" cx="511" cy="106.2" r="4.4"/>
    <circle class="st10" cx="511" cy="42.1" r="4.4"/>
    <circle class="st10" cx="511" cy="29.3" r="4.4"/>
    <circle class="st10" cx="511" cy="67.7" r="4.4"/>
    <circle class="st10" cx="511" cy="54.9" r="4.4"/>
    <circle class="st10" cx="511" cy="93.4" r="4.4"/>
    <circle class="st10" cx="511" cy="80.6" r="4.4"/>
    <circle class="st6" cx="483.8" cy="119.1" r="4.4"/>
    <circle class="st6" cx="483.8" cy="106.2" r="4.4"/>
    <circle class="st6" cx="483.8" cy="42.1" r="4.4"/>
    <circle class="st6" cx="483.8" cy="29.3" r="4.4"/>
    <circle class="st6" cx="483.8" cy="67.7" r="4.4"/>
    <circle class="st6" cx="483.8" cy="54.9" r="4.4"/>
    <circle class="st6" cx="483.8" cy="93.4" r="4.4"/>
    <circle class="st6" cx="483.8" cy="80.6" r="4.4"/>
    <circle class="st5" cx="497.4" cy="119.1" r="4.4"/>
    <circle class="st5" cx="497.4" cy="106.2" r="4.4"/>
    <circle class="st5" cx="497.4" cy="42.1" r="4.4"/>
    <circle class="st5" cx="497.4" cy="29.3" r="4.4"/>
    <circle class="st5" cx="497.4" cy="67.7" r="4.4"/>
    <circle class="st5" cx="497.4" cy="54.9" r="4.4"/>
    <circle class="st5" cx="497.4" cy="93.4" r="4.4"/>
    <circle class="st5" cx="497.4" cy="80.6" r="4.4"/>
    <circle class="st7" cx="551.9" cy="119.1" r="4.4"/>
    <circle class="st7" cx="551.9" cy="106.2" r="4.4"/>
    <circle class="st7" cx="551.9" cy="42.1" r="4.4"/>
    <circle class="st7" cx="551.9" cy="29.3" r="4.4"/>
    <circle class="st7" cx="551.9" cy="67.7" r="4.4"/>
    <circle class="st7" cx="551.9" cy="54.9" r="4.4"/>
    <circle class="st7" cx="551.9" cy="93.4" r="4.4"/>
    <circle class="st7" cx="551.9" cy="80.6" r="4.4"/>
    <circle class="st10" cx="524.7" cy="119.1" r="4.4"/>
    <circle class="st10" cx="524.7" cy="106.2" r="4.4"/>
    <circle class="st10" cx="524.7" cy="42.1" r="4.4"/>
    <circle class="st10" cx="524.7" cy="29.3" r="4.4"/>
    <circle class="st10" cx="524.7" cy="67.7" r="4.4"/>
    <circle class="st10" cx="524.7" cy="54.9" r="4.4"/>
    <circle class="st10" cx="524.7" cy="93.4" r="4.4"/>
    <circle class="st10" cx="524.7" cy="80.6" r="4.4"/>
    <circle class="st4" cx="538.3" cy="119.1" r="4.4"/>
    <circle class="st4" cx="538.3" cy="106.2" r="4.4"/>
    <circle class="st4" cx="538.3" cy="42.1" r="4.4"/>
    <circle class="st4" cx="538.3" cy="29.3" r="4.4"/>
    <circle class="st4" cx="538.3" cy="67.7" r="4.4"/>
    <circle class="st4" cx="538.3" cy="54.9" r="4.4"/>
    <circle class="st4" cx="538.3" cy="93.4" r="4.4"/>
    <circle class="st4" cx="538.3" cy="80.6" r="4.4"/>
    <circle class="st12" cx="470.1" cy="119.1" r="4.4"/>
    <circle class="st12" cx="470.1" cy="106.2" r="4.4"/>
    <circle class="st12" cx="470.1" cy="42.1" r="4.4"/>
    <circle class="st12" cx="470.1" cy="29.3" r="4.4"/>
    <circle class="st12" cx="470.1" cy="54.9" r="4.4"/>
    <circle class="st12" cx="470.1" cy="93.4" r="4.4"/>
    <circle class="st12" cx="470.1" cy="80.6" r="4.4"/>
    <circle class="st12" cx="470.1" cy="68.5" r="4.4"/>
    <circle class="st11" cx="456.5" cy="119.1" r="4.4"/>
    <circle class="st11" cx="456.5" cy="106.2" r="4.4"/>
    <circle class="st11" cx="456.5" cy="42.1" r="4.4"/>
    <circle class="st11" cx="456.5" cy="29.3" r="4.4"/>
    <circle class="st11" cx="456.5" cy="54.9" r="4.4"/>
    <circle class="st11" cx="456.5" cy="93.4" r="4.4"/>
    <circle class="st11" cx="456.5" cy="80.6" r="4.4"/>
    <circle class="st11" cx="456.5" cy="68.5" r="4.4"/>
    <circle class="st9" cx="592.8" cy="16.4" r="4.4"/>
    <circle class="st8" cx="565.6" cy="16.4" r="4.4"/>
    <circle class="st8" cx="579.2" cy="16.4" r="4.4"/>
    <circle class="st10" cx="511" cy="16.4" r="4.4"/>
    <circle class="st6" cx="483.8" cy="16.4" r="4.4"/>
    <circle class="st5" cx="497.4" cy="16.4" r="4.4"/>
    <circle class="st7" cx="551.9" cy="16.4" r="4.4"/>
    <circle class="st10" cx="524.7" cy="16.4" r="4.4"/>
    <circle class="st4" cx="538.3" cy="16.4" r="4.4"/>
    <circle class="st12" cx="470.1" cy="16.4" r="4.4"/>
    <circle class="st11" cx="456.5" cy="16.4" r="4.4"/>
    <circle class="st9" cx="592.8" cy="4.4" r="4.4"/>
    <circle class="st8" cx="565.6" cy="4.4" r="4.4"/>
    <circle class="st8" cx="579.2" cy="4.4" r="4.4"/>
    <circle class="st10" cx="511" cy="4.4" r="4.4"/>
    <circle class="st6" cx="483.8" cy="4.4" r="4.4"/>
    <circle class="st5" cx="497.4" cy="4.4" r="4.4"/>
    <circle class="st7" cx="551.9" cy="4.4" r="4.4"/>
    <circle class="st10" cx="524.7" cy="4.4" r="4.4"/>
    <circle class="st4" cx="538.3" cy="4.4" r="4.4"/>
    <circle class="st12" cx="470.1" cy="4.4" r="4.4"/>
    <circle class="st11" cx="456.5" cy="4.4" r="4.4"/>
    <circle class="st9" cx="592.8" cy="-7.6" r="4.4"/>
    <circle class="st8" cx="565.6" cy="-7.6" r="4.4"/>
    <circle class="st8" cx="579.2" cy="-7.6" r="4.4"/>
    <circle class="st10" cx="511" cy="-7.6" r="4.4"/>
    <circle class="st6" cx="483.8" cy="-7.6" r="4.4"/>
    <circle class="st5" cx="497.4" cy="-7.6" r="4.4"/>
    <circle class="st7" cx="551.9" cy="-7.6" r="4.4"/>
    <circle class="st10" cx="524.7" cy="-7.6" r="4.4"/>
    <circle class="st4" cx="538.3" cy="-7.6" r="4.4"/>
    <circle class="st12" cx="470.1" cy="-7.6" r="4.4"/>
    <circle class="st11" cx="456.5" cy="-7.6" r="4.4"/>
  </g>
  <g class="st36">
    <g class="st26">
      <image class="st30" width="420" height="214" transform="translate(474.1 24.3) scale(.2)" xlink:href="Header Op1-8.png"/>
    </g>
  </g>
</svg>